<svg width="62" height="62" viewBox="0 0 62 62" fill="none" xmlns="http://www.w3.org/2000/svg">
<path d="M30.625 61.25C24.568 61.25 18.6469 59.4539 13.6107 56.0888C8.57442 52.7237 4.64914 47.9407 2.3312 42.3447C0.0132693 36.7487 -0.593208 30.591 0.588465 24.6504C1.77014 18.7097 4.68688 13.2529 8.96987 8.96987C13.2529 4.68688 18.7097 1.77014 24.6504 0.588465C30.591 -0.593208 36.7487 0.0132693 42.3447 2.3312C47.9407 4.64914 52.7237 8.57442 56.0888 13.6107C59.4539 18.6469 61.25 24.568 61.25 30.625C61.25 38.7473 58.0235 46.5369 52.2802 52.2802C46.5369 58.0235 38.7473 61.25 30.625 61.25ZM30.625 4.37501C25.4333 4.37501 20.3581 5.91455 16.0413 8.79894C11.7245 11.6833 8.35998 15.783 6.37318 20.5796C4.38638 25.3761 3.86654 30.6541 4.8794 35.7461C5.89226 40.8381 8.39233 45.5154 12.0635 49.1866C15.7346 52.8577 20.4119 55.3578 25.5039 56.3706C30.5959 57.3835 35.8739 56.8636 40.6705 54.8769C45.467 52.89 49.5667 49.5255 52.4511 45.2087C55.3355 40.8919 56.875 35.8168 56.875 30.625C56.875 23.6631 54.1094 16.9863 49.1866 12.0635C44.2637 7.14063 37.5869 4.37501 30.625 4.37501Z" fill="#282828"/>
<path d="M40.6656 43.75L28.4375 31.5219V10.9375H32.8125V29.7062L43.75 40.6656L40.6656 43.75Z" fill="#282828"/>
</svg>
