<svg width="62" height="62" viewBox="0 0 62 62" fill="none" xmlns="http://www.w3.org/2000/svg">
<path fill-rule="evenodd" clip-rule="evenodd" d="M6.80555 20.4167H10.2083V37.4305H51.0417V20.4167H54.4444V37.4305H58.6979C58.9235 37.4305 59.1399 37.5202 59.2994 37.6797C59.459 37.8392 59.5486 38.0556 59.5486 38.2812V39.9826C59.5486 40.2082 59.459 40.4246 59.2994 40.5842C59.1399 40.7437 58.9235 40.8333 58.6979 40.8333H2.55208C2.32646 40.8333 2.11008 40.7437 1.95055 40.5842C1.79101 40.4246 1.70139 40.2082 1.70139 39.9826V38.2812C1.70139 38.0556 1.79101 37.8392 1.95055 37.6797C2.11008 37.5202 2.32646 37.4305 2.55208 37.4305H6.80555V20.4167ZM6.80555 47.6389V57.8472H54.4444V47.6389H6.80555ZM5.10416 44.2361C4.65293 44.2361 4.22017 44.4154 3.9011 44.7344C3.58203 45.0535 3.40277 45.4863 3.40277 45.9375V59.5486C3.40277 59.9998 3.58203 60.4326 3.9011 60.7517C4.22017 61.0707 4.65293 61.25 5.10416 61.25H56.1458C56.5971 61.25 57.0298 61.0707 57.3489 60.7517C57.668 60.4326 57.8472 59.9998 57.8472 59.5486V45.9375C57.8472 45.4863 57.668 45.0535 57.3489 44.7344C57.0298 44.4154 56.5971 44.2361 56.1458 44.2361H5.10416Z" fill="#282828"/>
<path fill-rule="evenodd" clip-rule="evenodd" d="M7.12712 3.40278L3.47764 13.4631C3.42852 13.5978 3.40319 13.74 3.40278 13.8833V17.9497C3.40278 19.3261 4.50358 20.4167 5.83406 20.4167C7.16115 20.4167 8.26365 19.3278 8.26365 17.9514C8.26365 17.5001 8.4429 17.0674 8.76197 16.7483C9.08104 16.4292 9.5138 16.25 9.96504 16.25C10.4163 16.25 10.849 16.4292 11.1681 16.7483C11.4872 17.0674 11.6664 17.5001 11.6664 17.9514C11.6623 18.6006 11.9161 19.2248 12.372 19.6871C12.8278 20.1493 13.4485 20.4117 14.0977 20.4167C15.4248 20.4167 16.5273 19.3278 16.5273 17.9514C16.5273 17.5001 16.7065 17.0674 17.0256 16.7483C17.3447 16.4292 17.7774 16.25 18.2287 16.25C18.6799 16.25 19.1127 16.4292 19.4317 16.7483C19.7508 17.0674 19.9301 17.5001 19.9301 17.9514C19.926 18.6006 20.1798 19.2248 20.6356 19.6871C21.0915 20.1493 21.7122 20.4117 22.3614 20.4167C23.6884 20.4167 24.7909 19.3278 24.7909 17.9531C24.7909 17.5018 24.9702 17.0691 25.2893 16.75C25.6083 16.4309 26.0411 16.2517 26.4923 16.2517C26.9436 16.2517 27.3763 16.4309 27.6954 16.75C28.0145 17.0691 28.1937 17.5018 28.1937 17.9531C28.1954 19.3278 29.2979 20.4167 30.625 20.4167C31.9521 20.4167 33.0563 19.3278 33.0563 17.9514C33.0563 17.5001 33.2355 17.0674 33.5546 16.7483C33.8737 16.4292 34.3064 16.25 34.7577 16.25C35.2089 16.25 35.6417 16.4292 35.9607 16.7483C36.2798 17.0674 36.4591 17.5001 36.4591 17.9514C36.4591 19.3261 37.5599 20.4167 38.8886 20.4167C40.2157 20.4167 41.3182 19.3278 41.3199 17.9531C41.3199 17.5018 41.4992 17.0691 41.8183 16.75C42.1373 16.4309 42.5701 16.2517 43.0213 16.2517C43.4726 16.2517 43.9053 16.4309 44.2244 16.75C44.5435 17.0691 44.7227 17.5018 44.7227 17.9531C44.7227 19.3278 45.8252 20.4167 47.1523 20.4167C48.4811 20.4167 49.5836 19.3278 49.5836 17.9514C49.5836 17.5001 49.7628 17.0674 50.0819 16.7483C50.401 16.4292 50.8337 16.25 51.285 16.25C51.7362 16.25 52.169 16.4292 52.488 16.7483C52.8071 17.0674 52.9864 17.5001 52.9864 17.9514C52.9864 19.3261 54.0872 20.4167 55.4159 20.4167C56.7464 20.4167 57.8472 19.3278 57.8472 17.9514V13.885C57.8469 13.7411 57.8216 13.5983 57.7724 13.4631L54.1229 3.40278H7.12712ZM51.285 22.0942C50.7451 22.6417 50.1016 23.0761 49.3921 23.3723C48.6825 23.6685 47.9212 23.8205 47.1523 23.8194C46.3837 23.8204 45.6226 23.6683 44.9134 23.3721C44.2041 23.0759 43.561 22.6415 43.0213 22.0942C42.4815 22.6417 41.838 23.0762 41.1285 23.3724C40.4189 23.6686 39.6575 23.8206 38.8886 23.8194C38.1201 23.8204 37.359 23.6683 36.6497 23.3721C35.9405 23.0759 35.2973 22.6415 34.7577 22.0942C34.2178 22.6417 33.5744 23.0762 32.8648 23.3724C32.1553 23.6686 31.3939 23.8206 30.625 23.8194C29.8561 23.8206 29.0947 23.6686 28.3852 23.3724C27.6756 23.0762 27.0322 22.6417 26.4923 22.0942C25.9527 22.6415 25.3095 23.0759 24.6003 23.3721C23.891 23.6683 23.1299 23.8204 22.3614 23.8194C20.7433 23.8194 19.2818 23.1576 18.2287 22.0942C17.689 22.6415 17.0459 23.0759 16.3366 23.3721C15.6274 23.6683 14.8663 23.8204 14.0977 23.8194C13.3288 23.8205 12.5675 23.6685 11.8579 23.3723C11.1484 23.0761 10.5049 22.6417 9.96504 22.0942C9.42559 22.6413 8.78269 23.0756 8.07377 23.3718C7.36484 23.668 6.60407 23.8202 5.83576 23.8194C2.59802 23.8194 0 21.1789 0 17.9514V13.885C0 13.3457 0.0935766 12.8098 0.277327 12.3027L3.98636 2.0774C4.20639 1.46879 4.60867 0.942803 5.13842 0.571069C5.66816 0.199335 6.29961 -7.44687e-05 6.94677 2.08617e-08H54.3066C54.9534 0.000751239 55.5843 0.200734 56.1134 0.572742C56.6424 0.944749 57.0441 1.47072 57.2636 2.0791L60.9727 12.3027C61.1581 12.8098 61.2517 13.3457 61.2517 13.885V17.9514C61.25 21.1789 58.652 23.8194 55.4159 23.8194C54.6473 23.8204 53.8862 23.6683 53.177 23.3721C52.4678 23.0759 51.8246 22.6415 51.285 22.0942Z" fill="#282828"/>
<path d="M13.6111 33.1771C13.6111 32.9515 13.7007 32.7351 13.8603 32.5755C14.0198 32.416 14.2362 32.3264 14.4618 32.3264H19.566C19.7916 32.3264 20.008 32.416 20.1675 32.5755C20.327 32.7351 20.4167 32.9515 20.4167 33.1771V36.5799C20.4167 36.8055 20.327 37.0219 20.1675 37.1814C20.008 37.3409 19.7916 37.4306 19.566 37.4306H14.4618C14.2362 37.4306 14.0198 37.3409 13.8603 37.1814C13.7007 37.0219 13.6111 36.8055 13.6111 36.5799V33.1771Z" fill="#282828"/>
<path d="M17.0139 34.8785C17.0139 34.6529 17.1035 34.4365 17.263 34.2769C17.4226 34.1174 17.639 34.0278 17.8646 34.0278H22.9687C23.1944 34.0278 23.4107 34.1174 23.5703 34.2769C23.7298 34.4365 23.8194 34.6529 23.8194 34.8785V36.5799C23.8194 36.8055 23.7298 37.0219 23.5703 37.1814C23.4107 37.3409 23.1944 37.4306 22.9687 37.4306H17.8646C17.639 37.4306 17.4226 37.3409 17.263 37.1814C17.1035 37.0219 17.0139 36.8055 17.0139 36.5799V34.8785ZM30.625 34.8785C30.625 35.5553 30.3561 36.2045 29.8775 36.6831C29.3989 37.1617 28.7498 37.4306 28.0729 37.4306C27.3961 37.4306 26.7469 37.1617 26.2683 36.6831C25.7897 36.2045 25.5208 35.5553 25.5208 34.8785C25.5208 34.2016 25.7897 33.5525 26.2683 33.0739C26.7469 32.5953 27.3961 32.3264 28.0729 32.3264C28.7498 32.3264 29.3989 32.5953 29.8775 33.0739C30.3561 33.5525 30.625 34.2016 30.625 34.8785Z" fill="#282828"/>
</svg>
