<svg width="82" height="62" viewBox="0 0 82 62" fill="none" xmlns="http://www.w3.org/2000/svg">
<g id="wifi_icon">
<path id="Vector" d="M45.2062 56.8753C45.2062 57.7406 44.9497 58.5864 44.469 59.3058C43.9883 60.0252 43.305 60.5859 42.5057 60.917C41.7063 61.2481 40.8267 61.3347 39.9781 61.1659C39.1295 60.9971 38.35 60.5805 37.7382 59.9687C37.1264 59.3569 36.7098 58.5774 36.541 57.7288C36.3722 56.8802 36.4588 56.0006 36.7899 55.2012C37.121 54.4019 37.6817 53.7186 38.4011 53.2379C39.1205 52.7572 39.9663 52.5007 40.8316 52.5007C41.9918 52.5007 43.1045 52.9616 43.9249 53.782C44.7453 54.6024 45.2062 55.7151 45.2062 56.8753ZM80.5973 14.2224C69.3854 5.02604 55.3326 0 40.8316 0C26.3306 0 12.2778 5.02604 1.06589 14.2224C0.467888 14.7135 0.0894919 15.4221 0.0139459 16.1923C-0.0616 16.9625 0.171892 17.7311 0.663057 18.3291C1.15422 18.9271 1.86283 19.3055 2.63298 19.381C3.40314 19.4566 4.17177 19.2231 4.76977 18.7319C14.938 10.3935 27.6816 5.83645 40.8316 5.83645C53.9815 5.83645 66.7252 10.3935 76.8934 18.7319C77.4914 19.2231 78.26 19.4566 79.0302 19.381C79.4115 19.3436 79.7817 19.2315 80.1197 19.051C80.4577 18.8705 80.7569 18.6252 81.0001 18.3291C81.2433 18.033 81.4258 17.6919 81.5372 17.3253C81.6485 16.9586 81.6866 16.5736 81.6492 16.1923C81.6118 15.811 81.4996 15.4407 81.3191 15.1027C81.1387 14.7647 80.8933 14.4656 80.5973 14.2224ZM68.9023 27.2625C60.9161 20.9397 51.0286 17.4995 40.8425 17.4995C30.6564 17.4995 20.7689 20.9397 12.7827 27.2625C12.1765 27.743 11.786 28.4447 11.6971 29.2132C11.6082 29.9816 11.8282 30.7539 12.3088 31.3601C12.7893 31.9663 13.491 32.3568 14.2594 32.4457C15.0279 32.5346 15.8002 32.3146 16.4064 31.834C23.3616 26.3286 31.9721 23.3332 40.8425 23.3332C49.7129 23.3332 58.3234 26.3286 65.2786 31.834C65.5788 32.072 65.9229 32.2485 66.2913 32.3535C66.6597 32.4585 67.0451 32.4899 67.4256 32.4458C67.8061 32.4018 68.1742 32.2833 68.5089 32.097C68.8436 31.9107 69.1383 31.6603 69.3762 31.3601C69.6142 31.06 69.7907 30.7159 69.8957 30.3475C70.0007 29.9791 70.0321 29.5937 69.9881 29.2131C69.944 28.8326 69.8255 28.4645 69.6392 28.1298C69.4529 27.7951 69.2025 27.5004 68.9023 27.2625ZM57.1418 40.299C52.4045 36.8561 46.6987 35.0017 40.8425 35.0017C34.9863 35.0017 29.2805 36.8561 24.5432 40.299C23.9177 40.7544 23.4987 41.4396 23.3783 42.204C23.258 42.9683 23.4462 43.7492 23.9016 44.3747C24.357 45.0003 25.0423 45.4193 25.8066 45.5397C26.571 45.66 27.3518 45.4717 27.9774 45.0163C31.7159 42.2974 36.2198 40.8329 40.8425 40.8329C45.4652 40.8329 49.9691 42.2974 53.7077 45.0163C54.0174 45.2418 54.3685 45.4041 54.741 45.4939C55.1134 45.5837 55.4999 45.5992 55.8784 45.5397C56.2569 45.4801 56.6199 45.3465 56.9468 45.1467C57.2736 44.9468 57.5579 44.6845 57.7834 44.3747C58.0089 44.065 58.1711 43.7139 58.2609 43.3414C58.3507 42.9689 58.3663 42.5825 58.3067 42.204C58.2471 41.8255 58.1136 41.4625 57.9137 41.1356C57.7138 40.8088 57.4515 40.5245 57.1418 40.299Z" fill="#282828"/>
</g>
</svg>
