<svg width="67" height="67" viewBox="0 0 67 67" fill="none" xmlns="http://www.w3.org/2000/svg">
<g id="gym_icon">
<path id="Vector" d="M22.7949 44.4551L44.4523 22.7949M5.78409 61.4659L10.9291 56.3209M61.4659 5.78409L56.3209 10.9291M6.0625 27.7172L39.5301 61.1875L39.0373 61.6803L34.2013 61.1012C29.3291 60.5165 24.3957 61.4854 20.008 63.6793L18.861 64.25L3 48.389L3.57352 47.242C5.76739 42.8543 6.73625 37.9209 6.15159 33.0487L5.5725 28.2127L6.0625 27.7172ZM27.7227 6.06807L61.1875 39.5328L61.6803 39.0401L61.1012 34.2041C60.5165 29.3319 61.4854 24.3985 63.6793 20.0108L64.25 18.861L48.389 3L47.2392 3.57352C42.8543 5.76739 37.9181 6.73625 33.0487 6.15159L28.2099 5.5725L27.7199 6.06528L27.7227 6.06807Z" stroke="#282828" stroke-width="4"/>
</g>
</svg>
