<svg width="75" height="62" viewBox="0 0 75 62" fill="none" xmlns="http://www.w3.org/2000/svg">
<path d="M72.8189 57.1667H61.2495V47.639H70.0967C70.4071 47.639 70.7134 47.5682 70.9924 47.4321C71.2714 47.2959 71.5156 47.0979 71.7065 46.8532C71.8975 46.6084 72.0301 46.3234 72.0943 46.0197C72.1585 45.716 72.1526 45.4016 72.0771 45.1005L61.1883 1.54532C61.0776 1.10386 60.8227 0.71202 60.4639 0.432043C60.1051 0.152065 59.663 0 59.2079 0C58.7528 0 58.3107 0.152065 57.9519 0.432043C57.5931 0.71202 57.3381 1.10386 57.2275 1.54532L46.3387 45.1005C46.2631 45.4016 46.2573 45.716 46.3215 46.0197C46.3857 46.3234 46.5183 46.6084 46.7092 46.8532C46.9002 47.0979 47.1444 47.2959 47.4234 47.4321C47.7023 47.5682 48.0087 47.639 48.3191 47.639H57.1662V57.1667H34.0275V50.3612H37.4303C37.9718 50.3612 38.4911 50.1461 38.8739 49.7632C39.2568 49.3803 39.4719 48.861 39.4719 48.3195C39.4719 47.7781 39.2568 47.2588 38.8739 46.8759C38.4911 46.493 37.9718 46.2779 37.4303 46.2779H34.0275V39.4724H37.4303C37.9718 39.4724 38.4911 39.2573 38.8739 38.8744C39.2568 38.4915 39.4719 37.9722 39.4719 37.4307C39.4719 36.8893 39.2568 36.37 38.8739 35.9871C38.4911 35.6042 37.9718 35.3891 37.4303 35.3891H7.48605C6.94457 35.3891 6.42527 35.6042 6.04239 35.9871C5.6595 36.37 5.4444 36.8893 5.4444 37.4307C5.4444 37.9722 5.6595 38.4915 6.04239 38.8744C6.42527 39.2573 6.94457 39.4724 7.48605 39.4724H10.8888V46.2779H7.48605C6.94457 46.2779 6.42527 46.493 6.04239 46.8759C5.6595 47.2588 5.4444 47.7781 5.4444 48.3195C5.4444 48.861 5.6595 49.3803 6.04239 49.7632C6.42527 50.1461 6.94457 50.3612 7.48605 50.3612H10.8888V57.1667H2.04165C1.50017 57.1667 0.980869 57.3818 0.597986 57.7647C0.215102 58.1476 0 58.6669 0 59.2083C0 59.7498 0.215102 60.2691 0.597986 60.652C0.980869 61.0349 1.50017 61.25 2.04165 61.25H72.8189C73.3604 61.25 73.8797 61.0349 74.2626 60.652C74.6454 60.2691 74.8605 59.7498 74.8605 59.2083C74.8605 58.6669 74.6454 58.1476 74.2626 57.7647C73.8797 57.3818 73.3604 57.1667 72.8189 57.1667ZM59.2079 10.4605L67.4834 43.5557H50.9324L59.2079 10.4605ZM14.9721 39.4724H29.9442V46.2779H14.9721V39.4724ZM14.9721 50.3612H29.9442V57.1667H14.9721V50.3612ZM33.347 23.1392C35.0968 23.1392 36.8073 22.6203 38.2622 21.6482C39.7171 20.676 40.8511 19.2943 41.5207 17.6777C42.1903 16.0611 42.3655 14.2822 42.0241 12.566C41.6828 10.8498 40.8402 9.27344 39.6029 8.03614C38.3656 6.79884 36.7891 5.95623 35.073 5.61487C33.3568 5.2735 31.5779 5.4487 29.9613 6.11832C28.3447 6.78794 26.963 7.9219 25.9908 9.37681C25.0187 10.8317 24.4998 12.5422 24.4998 14.292C24.4998 16.6384 25.4319 18.8887 27.0911 20.5479C28.7502 22.2071 31.0006 23.1392 33.347 23.1392ZM33.347 9.52817C34.2892 9.52817 35.2102 9.80757 35.9936 10.331C36.777 10.8545 37.3876 11.5985 37.7482 12.469C38.1088 13.3395 38.2031 14.2973 38.0193 15.2214C37.8355 16.1455 37.3818 16.9943 36.7155 17.6606C36.0493 18.3268 35.2004 18.7805 34.2764 18.9643C33.3523 19.1482 32.3944 19.0538 31.5239 18.6932C30.6534 18.3327 29.9094 17.7221 29.386 16.9387C28.8625 16.1553 28.5831 15.2342 28.5831 14.292C28.5831 13.0286 29.085 11.8169 29.9784 10.9235C30.8718 10.0301 32.0835 9.52817 33.347 9.52817Z" fill="#282828"/>
</svg>
