<svg width="18" height="18" viewBox="0 0 18 18" fill="none" xmlns="http://www.w3.org/2000/svg">
<g id="icon_star">
<path id="Vector" d="M8.99999 12.975L6.22499 15.0937C6.08749 15.2062 5.93749 15.2592 5.77499 15.2527C5.61249 15.2467 5.46874 15.2 5.34374 15.1125C5.21874 15.025 5.12199 14.9062 5.05349 14.7562C4.98449 14.6062 4.98124 14.4437 5.04374 14.2687L6.11249 10.8L3.39374 8.8687C3.24374 8.7687 3.14999 8.63745 3.11249 8.47495C3.07499 8.31245 3.08124 8.16245 3.13124 8.02495C3.18124 7.88745 3.26874 7.76545 3.39374 7.65895C3.51874 7.55295 3.66874 7.49995 3.84374 7.49995H7.19999L8.28749 3.89995C8.34999 3.72495 8.44699 3.59045 8.57849 3.49645C8.70949 3.40295 8.84999 3.3562 8.99999 3.3562C9.14999 3.3562 9.29049 3.40295 9.42149 3.49645C9.55299 3.59045 9.64999 3.72495 9.71249 3.89995L10.8 7.49995H14.1562C14.3312 7.49995 14.4812 7.55295 14.6062 7.65895C14.7312 7.76545 14.8187 7.88745 14.8687 8.02495C14.9187 8.16245 14.925 8.31245 14.8875 8.47495C14.85 8.63745 14.7562 8.7687 14.6062 8.8687L11.8875 10.8L12.9562 14.2687C13.0187 14.4437 13.0157 14.6062 12.9472 14.7562C12.8782 14.9062 12.7812 15.025 12.6562 15.1125C12.5312 15.2 12.3875 15.2467 12.225 15.2527C12.0625 15.2592 11.9125 15.2062 11.775 15.0937L8.99999 12.975Z" fill="#282828"/>
</g>
</svg>
