<svg width="204" height="59" viewBox="0 0 204 59" fill="none" xmlns="http://www.w3.org/2000/svg">
<path d="M60.7996 47.3177C60.7996 47.8471 61.0104 48.0007 61.5429 48.0007C62.7707 48.0007 63.4097 47.1609 63.4097 45.896C63.4097 45.137 63.1594 44.5454 62.6376 44.2095C62.3144 43.9863 61.9081 43.9039 61.4295 43.9039C61.1185 43.9039 60.9561 43.9491 60.8901 44.0038C60.8257 44.0506 60.7996 44.1367 60.7996 44.4019V47.3177ZM61.4976 43.644C62.4875 43.644 63.1296 43.8422 63.5753 44.2643C63.9278 44.6055 64.1887 45.104 64.1887 45.795C64.1887 46.6263 63.8458 47.2944 63.2957 47.7079C62.7558 48.1129 62.0658 48.2771 61.1989 48.2771H59.4753V48.0661C60.0765 48.0119 60.1116 47.9593 60.1116 47.3735V44.5539C60.1116 43.9432 60.027 43.9097 59.4753 43.8555V43.644H61.4976Z" fill="white"/>
<path d="M67.6591 44.5487C67.4344 45.144 67.1991 45.7616 66.9914 46.317H68.2906L67.6591 44.5487ZM68.3577 48.2772V48.0662C68.8193 48.0077 68.8662 47.9355 68.7661 47.658C68.6772 47.3917 68.5398 47.0415 68.3971 46.6221H66.8817C66.7742 46.9251 66.6682 47.2015 66.5734 47.481C66.4174 47.9418 66.5303 47.9987 67.1123 48.0662V48.2772H65.442V48.0662C65.8919 48.0093 66.0058 47.9567 66.255 47.3232L67.7342 43.591L67.9834 43.5442C68.4344 44.7672 68.9258 46.1002 69.3784 47.3258C69.6132 47.9535 69.6777 48.0093 70.1766 48.0662V48.2772H68.3577Z" fill="white"/>
<path d="M71.9977 48.2773V48.0663C72.5754 48.0047 72.6339 47.9733 72.6339 47.369V44.56C72.6339 43.9493 72.5738 43.9158 71.9977 43.8552V43.6442H73.964V43.8552C73.3815 43.9169 73.3219 43.9493 73.3219 44.56V47.369C73.3219 47.9781 73.3799 48.0036 73.964 48.0663V48.2773H71.9977Z" fill="white"/>
<path d="M79.6638 47.0812C79.6185 47.3177 79.4066 48.0613 79.3369 48.2771H75.9765V48.0661C76.6224 48.006 76.6794 47.9678 76.6794 47.3629V44.5539C76.6794 43.9491 76.608 43.9097 76.0431 43.8555V43.644H78.0137V43.8555C77.4451 43.9113 77.3673 43.9432 77.3673 44.5539V47.4304C77.3673 47.8577 77.4168 47.9715 77.8215 47.9784C77.83 47.98 78.3103 47.9858 78.3508 47.9858C78.7224 47.9858 78.83 47.9353 78.9956 47.7546C79.166 47.5771 79.3225 47.288 79.4338 47.019L79.6638 47.0812Z" fill="white"/>
<path d="M85.0935 43.8554C84.6016 43.9112 84.5015 43.9936 84.2214 44.4459C83.9115 44.9519 83.6548 45.426 83.305 46.0744C83.2246 46.2291 83.2028 46.3146 83.2028 46.4874V47.3654C83.2028 47.9618 83.2662 48.0006 83.9158 48.0659V48.2775H81.829V48.0659C82.4637 47.983 82.5138 47.9676 82.5138 47.3654V46.4634C82.5138 46.3183 82.485 46.253 82.3823 46.0654C82.1405 45.6099 81.8935 45.156 81.5005 44.4714C81.2242 43.9909 81.1464 43.9043 80.6736 43.8554V43.6444H82.4909V43.8554C81.9829 43.9255 82.009 44.018 82.1363 44.262C82.4249 44.7951 82.755 45.4238 83.05 45.9559C83.2992 45.4924 83.6948 44.7318 83.8945 44.3327C84.0537 43.9888 84.026 43.9138 83.4706 43.8554V43.6444H85.0935V43.8554Z" fill="white"/>
<path d="M91.2716 44.5487C91.0469 45.144 90.8116 45.7616 90.6039 46.317H91.9031L91.2716 44.5487ZM91.9702 48.2772V48.0662C92.4319 48.0077 92.4787 47.9355 92.3786 47.658C92.2897 47.3917 92.1523 47.0415 92.0096 46.6221H90.4942C90.3867 46.9251 90.2807 47.2015 90.1859 47.481C90.0299 47.9418 90.1428 47.9987 90.7248 48.0662V48.2772H89.0545V48.0662C89.5044 48.0093 89.6183 47.9567 89.8675 47.3232L91.3467 43.591L91.5959 43.5442C92.0469 44.7672 92.5383 46.1002 92.9909 47.3258C93.2258 47.9535 93.2902 48.0093 93.7891 48.0662V48.2772H91.9702Z" fill="white"/>
<path d="M96.9345 46.0373C97.0202 46.0799 97.2039 46.1261 97.4302 46.1261C97.8817 46.1261 98.4637 45.8928 98.4637 44.9871C98.4637 44.2005 97.9637 43.8954 97.3886 43.8954C97.1916 43.8954 97.0532 43.9315 97.0106 43.9788C96.9547 44.0272 96.9345 44.1101 96.9345 44.2871V46.0373ZM97.4861 43.6445C98.0031 43.6445 98.4142 43.7381 98.707 43.948C98.9993 44.1601 99.1937 44.4965 99.1937 44.9706C99.1937 46.0097 98.3034 46.4333 97.6096 46.4344C97.5324 46.4344 97.4573 46.4269 97.4131 46.42L96.9345 46.2957V47.382C96.9345 47.9805 96.9845 47.9975 97.6352 48.0661V48.2771H95.6102V48.0661C96.2103 48.0023 96.2465 47.963 96.2465 47.3704V44.5598C96.2465 43.9321 96.1693 43.9087 95.6102 43.8555V43.6445H97.4861Z" fill="white"/>
<path d="M102.449 44.5487C102.225 45.144 101.989 45.7616 101.782 46.317H103.081L102.449 44.5487ZM103.148 48.2772V48.0662C103.61 48.0077 103.656 47.9355 103.556 47.658C103.467 47.3917 103.33 47.0415 103.187 46.6221H101.672C101.564 46.9251 101.458 47.2015 101.364 47.481C101.208 47.9418 101.321 47.9987 101.902 48.0662V48.2772H100.232V48.0662C100.682 48.0093 100.796 47.9567 101.045 47.3232L102.524 43.591L102.774 43.5442C103.225 44.7672 103.716 46.1002 104.169 47.3258C104.403 47.9535 104.468 48.0093 104.967 48.0662V48.2772H103.148Z" fill="white"/>
<path d="M108.418 46.0127C108.778 46.0127 109.013 45.9569 109.188 45.8097C109.459 45.6045 109.571 45.3218 109.571 44.9407C109.571 44.1796 109.077 43.9027 108.553 43.9027C108.349 43.9027 108.233 43.9314 108.184 43.9739C108.122 44.0228 108.102 44.0967 108.102 44.2742V46.0127H108.418ZM111.068 48.3317C110.984 48.3317 110.904 48.3258 110.813 48.3189C110.222 48.2817 109.947 48.1361 109.651 47.7199C109.382 47.351 109.134 46.9046 108.903 46.5299C108.767 46.3082 108.672 46.2652 108.333 46.2652L108.102 46.2641V47.3691C108.102 47.9697 108.179 48.008 108.744 48.0659V48.2775H106.788V48.0659C107.371 48.0032 107.424 47.9697 107.424 47.3691V44.5452C107.424 43.9473 107.347 43.9154 106.788 43.8553V43.6443H108.653C109.195 43.6443 109.548 43.7097 109.823 43.8915C110.114 44.0786 110.307 44.398 110.307 44.8338C110.307 45.4509 109.909 45.8267 109.391 46.0473C109.516 46.2668 109.818 46.7419 110.032 47.064C110.294 47.4441 110.433 47.6248 110.592 47.7991C110.78 48.0021 110.929 48.0765 111.1 48.1244L111.068 48.3317Z" fill="white"/>
<path d="M116.336 44.7838C116.269 44.5377 116.171 44.2959 116.093 44.1731C115.976 43.9881 115.908 43.9371 115.51 43.9371H114.842V47.3865C114.842 47.9499 114.902 48.0222 115.572 48.0663V48.2773H113.441V48.0663C114.096 48.0222 114.154 47.9558 114.154 47.3865V43.9371H113.542C113.148 43.9371 113.034 43.9839 112.91 44.1896C112.822 44.3309 112.757 44.5175 112.664 44.7848H112.44C112.484 44.3352 112.528 43.8664 112.548 43.4779H112.721C112.828 43.6474 112.908 43.6442 113.111 43.6442H115.944C116.142 43.6442 116.207 43.6129 116.317 43.4779H116.495C116.496 43.8063 116.525 44.34 116.56 44.7625L116.336 44.7838Z" fill="white"/>
<path d="M122.425 48.2773V48.0663C123.002 48.0095 123.026 47.9654 123.02 47.2244L123.025 44.3394C122.452 45.6294 121.578 47.5449 121.28 48.2773H121.086C120.803 47.5364 120.05 45.6905 119.513 44.408C119.397 46.8566 119.391 47.3977 119.391 47.555C119.398 47.9515 119.57 48.0164 120.065 48.0663V48.2773H118.358V48.0663C118.771 48.0249 118.945 47.9404 119.002 47.5481C119.042 47.2521 119.053 46.9688 119.235 44.4123C119.262 44.0466 119.195 43.9121 118.569 43.8552V43.6442H119.866L121.408 47.1734L123.044 43.6442H124.34V43.8552C123.734 43.9243 123.658 43.9871 123.672 44.4989L123.706 47.2244C123.731 47.9654 123.754 47.9994 124.373 48.0663V48.2773H122.425Z" fill="white"/>
<path d="M130.188 47.13C130.146 47.3165 129.952 48.0659 129.882 48.2775H126.369V48.0675C127.031 48.0149 127.079 47.9559 127.079 47.3691V44.5702C127.079 43.9409 127 43.9043 126.473 43.8554V43.6444H128.682C129.368 43.6444 129.641 43.6369 129.729 43.63C129.737 43.7996 129.767 44.3428 129.795 44.7323L129.57 44.768C129.505 44.5256 129.425 44.3502 129.338 44.204C129.221 43.9856 129.07 43.9372 128.653 43.9372H128.013C127.783 43.9372 127.766 43.9574 127.766 44.17V45.73H128.542C129.053 45.73 129.095 45.6231 129.185 45.1347H129.417V46.625H129.185C129.088 46.1089 129.031 46.0351 128.535 46.0351H127.766V47.4191C127.766 47.9166 127.898 47.9788 128.27 47.9857H128.906C129.335 47.9857 129.413 47.924 129.57 47.7375C129.713 47.5775 129.862 47.2905 129.965 47.0715L130.188 47.13Z" fill="white"/>
<path d="M137.012 43.8553C136.559 43.9069 136.411 43.9818 136.39 44.3082C136.38 44.5452 136.365 44.8344 136.365 45.4897V48.3439H136.07L133.028 44.6457V46.397C133.028 47.0342 133.048 47.3473 133.063 47.5541C133.081 47.9086 133.254 48.026 133.771 48.0659V48.2774H132.029V48.0659C132.465 48.0303 132.638 47.9235 132.669 47.5769C132.692 47.3436 132.706 47.0342 132.706 46.3911V44.5968C132.706 44.3906 132.692 44.2688 132.562 44.1067C132.428 43.9287 132.274 43.8899 131.933 43.8553V43.6443H133.062L136.034 47.1522V45.4897C136.034 44.8344 136.021 44.5404 135.999 44.3183C135.978 43.9999 135.823 43.8909 135.248 43.8553V43.6443H137.012V43.8553Z" fill="white"/>
<path d="M142.8 44.7838C142.733 44.5377 142.635 44.2959 142.558 44.1731C142.441 43.9881 142.372 43.9371 141.975 43.9371H141.306V47.3865C141.306 47.9499 141.367 48.0222 142.037 48.0663V48.2773H139.906V48.0663C140.56 48.0222 140.618 47.9558 140.618 47.3865V43.9371H140.007C139.613 43.9371 139.499 43.9839 139.375 44.1896C139.287 44.3309 139.222 44.5175 139.129 44.7848H138.904C138.949 44.3352 138.993 43.8664 139.013 43.4779H139.186C139.293 43.6474 139.373 43.6442 139.576 43.6442H142.409C142.607 43.6442 142.672 43.6129 142.782 43.4779H142.96C142.961 43.8063 142.99 44.34 143.025 44.7625L142.8 44.7838Z" fill="white"/>
<path d="M149.684 46.0127C150.044 46.0127 150.279 45.9569 150.454 45.8097C150.725 45.6045 150.837 45.3218 150.837 44.9407C150.837 44.1796 150.343 43.9027 149.819 43.9027C149.615 43.9027 149.499 43.9314 149.45 43.9739C149.388 44.0228 149.368 44.0967 149.368 44.2742V46.0127H149.684ZM152.334 48.3317C152.25 48.3317 152.17 48.3258 152.079 48.3189C151.488 48.2817 151.213 48.1361 150.917 47.7199C150.648 47.351 150.4 46.9046 150.169 46.5299C150.033 46.3082 149.938 46.2652 149.599 46.2652L149.368 46.2641V47.3691C149.368 47.9697 149.445 48.008 150.01 48.0659V48.2775H148.054V48.0659C148.637 48.0032 148.69 47.9697 148.69 47.3691V44.5452C148.69 43.9473 148.613 43.9154 148.054 43.8553V43.6443H149.919C150.461 43.6443 150.814 43.7097 151.089 43.8915C151.38 44.0786 151.573 44.398 151.573 44.8338C151.573 45.4509 151.175 45.8267 150.657 46.0473C150.782 46.2668 151.084 46.7419 151.298 47.064C151.56 47.4441 151.699 47.6248 151.858 47.7991C152.046 48.0021 152.195 48.0765 152.366 48.1244L152.334 48.3317Z" fill="white"/>
<path d="M157.951 47.13C157.91 47.3165 157.715 48.0659 157.646 48.2775H154.133V48.0675C154.794 48.0149 154.843 47.9559 154.843 47.3691V44.5702C154.843 43.9409 154.764 43.9043 154.237 43.8554V43.6444H156.446C157.131 43.6444 157.405 43.6369 157.493 43.63C157.5 43.7996 157.53 44.3428 157.558 44.7323L157.333 44.768C157.269 44.5256 157.188 44.3502 157.102 44.204C156.985 43.9856 156.834 43.9372 156.417 43.9372H155.777C155.547 43.9372 155.53 43.9574 155.53 44.17V45.73H156.306C156.817 45.73 156.859 45.6231 156.949 45.1347H157.18V46.625H156.949C156.852 46.1089 156.795 46.0351 156.299 46.0351H155.53V47.4191C155.53 47.9166 155.661 47.9788 156.033 47.9857H156.669C157.098 47.9857 157.177 47.924 157.334 47.7375C157.477 47.5775 157.626 47.2905 157.728 47.0715L157.951 47.13Z" fill="white"/>
<path d="M164.775 43.8553C164.322 43.9069 164.175 43.9818 164.153 44.3082C164.144 44.5452 164.128 44.8344 164.128 45.4897V48.3439H163.834L160.791 44.6457V46.397C160.791 47.0342 160.812 47.3473 160.827 47.5541C160.844 47.9086 161.017 48.026 161.534 48.0659V48.2774H159.793V48.0659C160.229 48.0303 160.402 47.9235 160.433 47.5769C160.455 47.3436 160.469 47.0342 160.469 46.3911V44.5968C160.469 44.3906 160.455 44.2688 160.326 44.1067C160.191 43.9287 160.037 43.8899 159.697 43.8553V43.6443H160.826L163.798 47.1522V45.4897C163.798 44.8344 163.784 44.5404 163.763 44.3183C163.742 43.9999 163.587 43.8909 163.012 43.8553V43.6443H164.775V43.8553Z" fill="white"/>
<path d="M170.564 44.7838C170.497 44.5377 170.399 44.2959 170.322 44.1731C170.205 43.9881 170.136 43.9371 169.739 43.9371H169.07V47.3865C169.07 47.9499 169.13 48.0222 169.801 48.0663V48.2773H167.67V48.0663C168.324 48.0222 168.382 47.9558 168.382 47.3865V43.9371H167.771C167.377 43.9371 167.263 43.9839 167.139 44.1896C167.051 44.3309 166.986 44.5175 166.893 44.7848H166.668C166.713 44.3352 166.757 43.8664 166.777 43.4779H166.95C167.057 43.6474 167.137 43.6442 167.34 43.6442H170.173C170.371 43.6442 170.436 43.6129 170.546 43.4779H170.724C170.725 43.8063 170.753 44.34 170.789 44.7625L170.564 44.7838Z" fill="white"/>
<path d="M174.242 44.5487C174.017 45.144 173.782 45.7616 173.574 46.317H174.874L174.242 44.5487ZM174.941 48.2772V48.0662C175.402 48.0077 175.449 47.9355 175.349 47.658C175.26 47.3917 175.123 47.0415 174.98 46.6221H173.465C173.357 46.9251 173.251 47.2015 173.157 47.481C173.001 47.9418 173.113 47.9987 173.695 48.0662V48.2772H172.025V48.0662C172.475 48.0093 172.589 47.9567 172.838 47.3232L174.317 43.591L174.566 43.5442C175.017 44.7672 175.509 46.1002 175.962 47.3258C176.196 47.9535 176.261 48.0093 176.76 48.0662V48.2772H174.941Z" fill="white"/>
<path d="M182.233 47.0812C182.188 47.3177 181.976 48.0613 181.906 48.2771H178.546V48.0661C179.192 48.006 179.249 47.9678 179.249 47.3629V44.5539C179.249 43.9491 179.177 43.9097 178.613 43.8555V43.644H180.583V43.8555C180.014 43.9113 179.937 43.9432 179.937 44.5539V47.4304C179.937 47.8577 179.986 47.9715 180.391 47.9784C180.399 47.98 180.88 47.9858 180.92 47.9858C181.292 47.9858 181.399 47.9353 181.565 47.7546C181.735 47.5771 181.892 47.288 182.003 47.019L182.233 47.0812Z" fill="white"/>
<path d="M161.724 8.90195H157.369L157.416 9.5743H159.644C159.225 10.0372 159.035 10.5826 158.867 11.146C157.673 15.146 156.481 19.1472 155.289 23.1478L153.611 28.7786C153.559 28.9566 153.503 29.1336 153.445 29.3212L153.414 29.2202C152.269 25.3993 151.124 21.5783 149.985 17.7557C149.959 17.6675 149.96 17.5495 149.988 17.4554C150.648 15.2284 151.313 13.003 151.979 10.7771L152.547 8.89292H151.461L149.38 15.7908C148.771 13.7429 148.162 11.6945 147.553 9.63649C147.344 8.93012 147.277 8.88069 146.527 8.88069H144.86L144.939 9.19747C144.956 9.26338 144.968 9.31493 144.984 9.36596L145.605 11.4542C146.43 14.2228 147.254 16.9914 148.072 19.7616C148.113 19.8987 148.114 20.072 148.076 20.2022C147.502 22.1534 146.917 24.1019 146.333 26.0504L146.152 26.652C145.942 27.3547 145.729 28.0563 145.511 28.7791L145.345 29.3287L141.427 16.1697C140.923 14.4827 140.42 12.7957 139.918 11.1082C139.798 10.7053 139.824 10.3492 139.992 10.0787C140.151 9.82305 140.432 9.65403 140.806 9.58919C140.957 9.56261 141.059 9.50734 141.118 9.41911C141.201 9.29473 141.17 9.15601 141.142 9.03324L141.113 8.90355H135.557L135.574 9.08479C135.577 9.11349 135.574 9.14219 135.573 9.16983C135.568 9.28092 135.555 9.54188 135.898 9.58175C136.413 9.64127 136.81 9.92988 137.08 10.4391C137.252 10.7627 137.401 11.1428 137.548 11.6355C139.702 18.8341 141.849 26.0349 143.991 33.2373C144.063 33.4786 144.18 33.6992 144.537 33.6992C144.556 33.6992 144.576 33.6987 144.596 33.6976L144.641 33.695C144.873 33.6811 145.137 33.6657 145.258 33.2565C146.072 30.4884 146.9 27.7251 147.728 24.9613L148.298 23.0612C148.412 22.678 148.529 22.2953 148.653 21.8876L148.678 21.8079L152.068 33.1146C152.225 33.6365 152.288 33.6854 152.82 33.6939L152.854 33.695C153.198 33.6992 153.298 33.4808 153.338 33.3155C153.386 33.1183 153.445 32.9238 153.504 32.7287L154.522 29.3218C156.244 23.548 157.968 17.7743 159.694 12.0022C159.833 11.5366 159.977 11.0556 160.178 10.6107C160.447 10.016 160.859 9.6737 161.401 9.59344C161.504 9.57803 161.651 9.54348 161.733 9.41858C161.814 9.29686 161.791 9.15176 161.757 9.02526L161.724 8.90195Z" fill="white"/>
<path d="M75.9211 32.0488C75.6538 31.7804 75.3934 31.4684 75.1469 31.1218C73.4665 28.7604 71.7919 26.3941 70.1173 24.0284L69.0508 22.5216C69.038 22.5041 69.0263 22.4865 69.014 22.4679C69.0433 22.4663 69.0721 22.4642 69.1003 22.4615C69.2531 22.4488 69.4065 22.4403 69.5598 22.4312C69.9064 22.411 70.2653 22.3903 70.6141 22.3233C73.1805 21.8312 74.8258 20.3557 75.5042 17.9384C75.9365 16.3971 75.9211 14.8217 75.4589 13.2559C74.9616 11.5732 73.926 10.3374 72.3813 9.58375C71.4442 9.12666 70.4016 8.89227 69.2824 8.88695C66.9635 8.87632 64.6447 8.87792 62.3253 8.88004L59.893 8.88111C59.8302 8.88111 59.7668 8.88695 59.7045 8.8928L59.4756 8.9114V9.46629L59.5906 9.5035C59.6854 9.53432 59.778 9.55984 59.8685 9.58482C60.0437 9.63265 60.2093 9.67836 60.3472 9.75277C60.9201 10.0616 61.1864 10.5479 61.1853 11.284L61.1832 13.2522C61.1757 19.0589 61.1683 25.0632 61.1949 30.9682C61.2008 32.2247 60.7167 32.8614 59.6263 33.0337L59.4857 33.0554V33.6677H65.2831L65.2522 32.9943H62.772C62.878 32.8875 62.9776 32.7817 63.0649 32.6616C63.4035 32.1965 63.5606 31.6347 63.5606 30.8933C63.5574 24.4637 63.5585 18.0346 63.559 11.6051V10.1216C63.559 10.0387 63.5643 9.9558 63.5697 9.87289C64.0611 9.87289 64.5526 9.87023 65.044 9.86757C66.1542 9.8612 67.3022 9.85482 68.4294 9.88033C70.7089 9.93082 72.3435 11.1007 73.0325 13.1746C73.4846 14.5358 73.549 15.991 73.2242 17.4989C72.7013 19.9268 70.9788 21.372 68.4981 21.4634C68.3506 21.4687 68.2798 21.4357 68.2042 21.3215C68.0402 21.0748 67.8203 20.7528 67.5684 20.4509C67.455 20.3153 67.2532 20.2133 67.0887 20.2074C66.6254 20.1925 66.1563 20.1957 65.7016 20.1984L65.3406 20.2C65.2858 20.2005 65.2304 20.2085 65.1638 20.2186L64.7938 20.268L65.4482 21.1918C65.8177 21.7142 66.1798 22.225 66.5424 22.7353L68.0796 24.8958C69.5987 27.0309 71.1178 29.1659 72.631 31.3052C72.8328 31.5901 72.9888 31.8808 73.0943 32.1689C73.1693 32.3725 73.1741 32.5367 73.1092 32.6568C73.0405 32.7838 72.8877 32.8753 72.655 32.93C72.5272 32.9598 72.3946 32.9757 72.2541 32.9933C72.1875 33.0012 72.1204 33.0097 72.0528 33.0193L71.9101 33.04V33.6736H78.0562V32.9964L77.8917 32.9949C77.1814 32.9874 76.5552 32.6866 75.9211 32.0488Z" fill="white"/>
<path d="M113.736 8.9473H109.435L109.426 9.10356C109.407 9.41981 109.412 9.55003 109.733 9.61274C110.625 9.78601 111.096 10.3563 111.096 11.2625L111.096 29.5786L106.888 21.4068C104.805 17.361 102.722 13.3152 100.644 9.26674C100.517 9.01799 100.336 8.91701 100.065 8.91701C99.417 8.92498 98.7679 8.92392 98.1194 8.92339L97.2627 8.92285C97.1935 8.92285 97.1242 8.92764 97.0571 8.93242L96.8356 8.94571L96.817 9.08124C96.7888 9.28481 96.7733 9.39642 96.8479 9.49369C96.9192 9.5867 97.0263 9.59999 97.1615 9.61753C97.5369 9.66483 97.8787 9.83598 98.2701 10.1714C98.4378 10.3154 98.5033 10.4653 98.5028 10.706C98.4964 16.3405 98.4964 21.975 98.4964 27.6089V31.2672C98.4964 31.3634 98.4969 31.4596 98.4916 31.5553C98.4533 32.2595 97.9655 32.8373 97.2792 32.9925C97.2062 33.0084 97.1328 33.0191 97.0614 33.0297L96.8585 33.0616L96.8261 33.1557C96.7861 33.2731 96.7435 33.4443 96.841 33.5787C96.9373 33.7127 97.1077 33.7238 97.2371 33.726C98.0358 33.7196 98.8334 33.7201 99.6332 33.7212H100.778C100.842 33.7212 100.906 33.7143 100.972 33.7068L101.208 33.6845V33.0228H99.1167C99.4085 32.6396 99.458 32.2128 99.4777 31.8296C99.4926 31.5431 99.5038 31.2555 99.5038 30.9685C99.5049 25.6083 99.5049 20.2481 99.5049 14.8874V12.1613C99.5416 12.232 99.5778 12.3027 99.614 12.3739L101.839 16.7375C104.517 21.9904 107.287 27.4223 109.987 32.7762C110.283 33.3629 110.627 33.7573 111.283 33.7573C111.38 33.7573 111.484 33.7488 111.594 33.7313L111.716 33.7132C112.099 33.659 112.138 33.5607 112.138 33.1642V16.7434C112.137 14.8815 112.137 13.0202 112.14 11.1584C112.142 10.3515 112.654 9.74934 113.445 9.62444C113.546 9.60849 113.69 9.57288 113.767 9.44798C113.842 9.32573 113.813 9.18488 113.774 9.06264L113.736 8.9473Z" fill="white"/>
<path d="M94.5538 28.957L94.4425 28.9182C94.2918 28.8651 94.1672 28.864 94.0629 28.9145C93.9212 28.9826 93.8579 29.1255 93.8222 29.2271C93.7328 29.4832 93.6343 29.6841 93.5208 29.8409C92.3329 31.4897 90.6807 32.4097 88.6105 32.576C87.5781 32.6584 86.5158 32.642 85.4887 32.6249C85.0287 32.6175 84.5686 32.6106 84.1086 32.6117C84.1038 32.6154 84.0905 32.6106 84.0788 32.6085L84.0772 30.0445C84.0756 28.0902 84.0734 26.1364 84.0841 24.182C84.0883 23.3826 83.992 22.4934 83.3099 21.8046L84.8924 21.803C86.7639 21.8014 88.6345 21.7993 90.5055 21.811C91.1541 21.8152 91.7573 22.3175 91.9086 22.9803C91.9251 23.0531 91.9357 23.127 91.9469 23.2014L91.9868 23.4496H92.6045V19.1195L92.4511 19.1072C92.4282 19.1051 92.4053 19.1025 92.3835 19.0993C92.2674 19.0833 91.9948 19.0466 91.9277 19.4006C91.7568 20.3037 91.2036 20.7618 90.2835 20.7629C88.8496 20.7639 87.4157 20.7634 85.9823 20.7634H84.0985V9.94625H84.2987C84.6618 9.94625 85.0249 9.94732 85.3881 9.94891C86.216 9.95104 87.0445 9.9537 87.8731 9.94307C89.1174 9.92287 90.292 10.2492 91.3756 10.904C92.4346 11.5434 93.0533 12.2121 93.3829 13.0726C93.4298 13.1959 93.5533 13.257 93.6529 13.3059C93.6848 13.3218 93.7168 13.3367 93.7439 13.3548L93.8675 13.4345L94.0991 13.1592L94.0506 12.9615C94.0299 12.8764 94.0091 12.7914 93.9867 12.7064L93.7381 11.7847C93.5224 10.9859 93.3063 10.1876 93.1018 9.38605C93.0214 9.06981 92.8558 8.94065 92.531 8.94065H92.5278C89.2878 8.94809 86.0483 8.9481 82.8088 8.94703L80.0411 8.9465V9.57421L80.1721 9.60291C81.3307 9.85643 81.7024 10.3172 81.7024 11.4998V31.0921L81.7029 31.1878C81.7035 31.2802 81.704 31.3733 81.6992 31.4657C81.6603 32.2082 81.1279 32.7977 80.4043 32.8987C80.3409 32.9077 80.1482 32.9348 80.0603 33.0831C79.9794 33.2197 80.0257 33.3722 80.0763 33.5051L80.1146 33.6072L80.2951 33.6162C80.3478 33.6189 80.3973 33.6215 80.4463 33.6215H82.869C86.2336 33.6226 89.5982 33.622 92.9628 33.6268C93.2472 33.6268 93.4053 33.5099 93.4745 33.2473C93.7008 32.3927 93.9308 31.5386 94.1603 30.685L94.5469 29.2467C94.5618 29.1898 94.5581 29.1383 94.5538 29.075V28.957Z" fill="white"/>
<path d="M133.509 13.1885L133.227 12.1478C132.97 11.1996 132.712 10.2514 132.467 9.30057C132.388 8.99443 132.233 8.87484 131.913 8.87484H131.908C129.918 8.88228 127.926 8.88122 125.935 8.88068H124.292H122.838C121.05 8.88122 119.262 8.88175 117.473 8.87643H117.469C117.265 8.87643 117.048 8.9232 116.97 9.26124C116.892 9.60672 116.795 9.95592 116.7 10.2934L115.822 13.5319L115.975 13.5792C116.28 13.6738 116.474 13.5903 116.602 13.3076C116.743 12.9993 116.903 12.6496 117.129 12.3806C118.436 10.827 120.169 9.98408 122.28 9.87512C122.594 9.85865 122.918 9.86343 123.232 9.86768C123.329 9.86875 123.427 9.87034 123.525 9.87087C123.528 9.90117 123.529 9.92828 123.529 9.95538L123.53 12.8127C123.53 18.925 123.531 25.2451 123.517 31.461C123.516 31.7024 123.419 32.0037 123.242 32.3088C122.999 32.7282 122.588 32.9556 121.985 33.0045L121.831 33.0168V33.6678H127.545L127.583 33.5536C127.621 33.4382 127.66 33.2692 127.563 33.1369C127.467 33.0067 127.296 32.9902 127.16 32.995C126.596 33.004 126.032 33.0019 125.469 33.0003L125.118 32.9987C125.476 32.6734 125.702 32.2445 125.819 31.6795C125.879 31.3866 125.887 31.0869 125.887 30.8589C125.89 25.8654 125.89 20.8719 125.89 15.8785L125.891 10.1175C125.891 10.0372 125.895 9.95698 125.9 9.873L125.97 9.87353C126.123 9.87619 126.265 9.87725 126.407 9.86981C127.908 9.78955 129.305 10.1409 130.564 10.9121C131.768 11.6503 132.462 12.4056 132.815 13.3623C132.942 13.7057 133.233 13.6307 133.373 13.5946L133.589 13.543L133.538 13.3161C133.528 13.2688 133.519 13.2284 133.509 13.1885Z" fill="white"/>
<path d="M203.845 28.953C203.715 28.9136 203.318 28.7946 203.17 29.2697C203.106 29.4738 203.013 29.6668 202.899 29.8267C201.633 31.5993 199.845 32.5454 197.584 32.6373C196.396 32.6857 195.184 32.6735 194.012 32.6612C193.546 32.6565 193.08 32.6517 192.614 32.6506C192.933 32.3567 193.152 31.9809 193.278 31.5121C193.365 31.189 193.411 30.8339 193.412 30.4853C193.417 25.6188 193.417 20.7524 193.417 15.886L193.418 11.4538C193.418 11.2847 193.418 11.1099 193.434 10.9414C193.5 10.2637 193.997 9.72212 194.671 9.5935L195.084 9.5143V8.89882H189.322L189.358 9.54035L189.502 9.55204C190.444 9.63176 191.07 10.3583 191.06 11.3607C191.033 13.9725 191.038 16.6274 191.042 19.1946C191.044 20.1922 191.046 21.1898 191.046 22.1869V24.6021C191.046 26.8562 191.046 29.1103 191.044 31.3644C191.044 32.1967 190.506 32.8191 189.676 32.9493C189.628 32.9568 189.581 32.9674 189.533 32.978L189.34 33.0195V33.6467L197.089 33.6461C198.819 33.6456 200.549 33.6445 202.279 33.6536H202.286C202.63 33.6536 202.807 33.5117 202.874 33.18C202.929 32.9105 203.005 32.6373 203.08 32.3732L204 28.9997L203.845 28.953Z" fill="white"/>
<path d="M187.474 28.9588C187.364 29.0178 187.287 29.1262 187.238 29.2905C187.18 29.4861 187.083 29.6827 186.966 29.8448C185.7 31.5999 183.927 32.539 181.697 32.6358C180.489 32.6878 179.256 32.6751 178.063 32.6618C177.607 32.657 177.15 32.6522 176.694 32.6506C176.982 32.3907 177.182 32.0633 177.302 31.6583C177.424 31.2448 177.484 30.8823 177.485 30.5501C177.495 27.2261 177.494 23.9016 177.493 20.577L177.493 15.9487C177.492 14.3728 177.492 12.7969 177.494 11.221C177.496 10.3158 177.971 9.73542 178.831 9.58607C179.221 9.51804 179.186 9.24165 179.168 9.10878L179.148 8.90096H173.401L173.434 9.51378L173.568 9.53398C174.631 9.69556 175.145 10.3451 175.137 11.5191C175.114 15.3082 175.117 19.1611 175.121 22.8875C175.122 24.2369 175.123 25.5864 175.123 26.9359L175.122 28.2307C175.122 29.2703 175.121 30.3099 175.124 31.3495C175.127 31.8762 174.959 32.2695 174.627 32.5183C174.418 32.6751 174.168 32.7925 173.903 32.9159C173.777 32.9754 173.647 33.036 173.517 33.1029L173.427 33.1492V33.6142L173.65 33.6344C173.705 33.6403 173.756 33.6456 173.807 33.6456L176.906 33.6461C180.084 33.6461 183.263 33.6467 186.442 33.6504H186.443C186.71 33.6504 186.853 33.5382 186.922 33.2757C187.172 32.3238 187.429 31.3745 187.686 30.4242L188.075 28.9987L187.92 28.9514C187.802 28.9152 187.627 28.8775 187.474 28.9588Z" fill="white"/>
<path d="M163.874 9.53224L164.026 9.54659C165.027 9.6396 165.642 10.3656 165.592 11.3967C165.555 12.1621 165.564 12.9402 165.573 13.6928C165.577 14.0282 165.581 14.3636 165.581 14.699L165.58 31.3488C165.58 32.2444 165.09 32.8253 164.201 32.9843C164.154 32.9922 164.109 33.0034 164.059 33.0156L163.855 33.064L163.884 33.6731H169.657V32.9832H167.188C167.53 32.6675 167.748 32.2625 167.861 31.7384C167.922 31.4583 167.953 31.1527 167.953 30.8296C167.957 25.5507 167.957 20.2713 167.957 14.9924V11.3781C167.956 11.2649 167.956 11.1517 167.961 11.0396C167.992 10.346 168.491 9.75759 169.176 9.60771C169.25 9.59123 169.326 9.57795 169.404 9.56359L169.659 9.51682V8.89603H163.874V9.53224Z" fill="white"/>
<path d="M135.558 28.235C134.205 28.235 133.104 29.3341 133.104 30.6847C133.104 32.0357 134.205 33.1349 135.558 33.1349C136.911 33.1349 138.012 32.0357 138.012 30.6847C138.012 29.3341 136.911 28.235 135.558 28.235ZM135.558 33.6993C133.893 33.6993 132.538 32.3467 132.538 30.6847C132.538 29.0226 133.893 27.6705 135.558 27.6705C137.223 27.6705 138.577 29.0226 138.577 30.6847C138.577 32.3467 137.223 33.6993 135.558 33.6993Z" fill="white"/>
<path d="M135.38 30.6282C135.608 30.6282 135.757 30.5926 135.868 30.4996C136.04 30.3694 136.11 30.1908 136.11 29.949C136.11 29.4669 135.797 29.2915 135.466 29.2915C135.337 29.2915 135.263 29.3096 135.232 29.3367C135.193 29.3675 135.181 29.4143 135.181 29.5269V30.6282H135.38ZM137.059 32.0973C137.006 32.0973 136.955 32.0936 136.897 32.0888C136.524 32.0654 136.348 31.9734 136.161 31.7093C135.991 31.476 135.834 31.1932 135.688 30.9556C135.601 30.8153 135.542 30.7882 135.327 30.7882L135.181 30.7877V31.4871C135.181 31.8677 135.229 31.8921 135.587 31.9288V32.0627H134.348V31.9288C134.717 31.8889 134.75 31.8677 134.75 31.4871V29.6986C134.75 29.3197 134.702 29.3 134.348 29.2617V29.1278H135.529C135.873 29.1278 136.096 29.1692 136.27 29.2846C136.455 29.4031 136.577 29.6051 136.577 29.8815C136.577 30.2721 136.325 30.5102 135.997 30.65C136.076 30.7893 136.267 31.0901 136.403 31.2942C136.568 31.535 136.657 31.6492 136.758 31.7598C136.877 31.8884 136.971 31.9357 137.079 31.966L137.059 32.0973Z" fill="white"/>
<path d="M43.374 29.5C43.374 36.7726 41.2948 43.6412 37.5308 48.8419C33.5539 54.3212 28.1803 57.3369 22.3872 57.3369C16.5946 57.3369 11.2146 54.3212 7.24409 48.8419C3.47376 43.6412 1.4009 36.7726 1.4009 29.5C1.4009 22.2274 3.47376 15.3588 7.24409 10.1581C11.2146 4.67882 16.5946 1.66254 22.3872 1.66254C28.1803 1.66254 33.5539 4.67882 37.5308 10.1581C41.2948 15.3588 43.374 22.2274 43.374 29.5ZM44.7749 29.5C44.7749 21.8219 42.5791 14.5664 38.5936 9.06797C34.3563 3.22037 28.601 -3.8147e-06 22.3872 -3.8147e-06C16.1739 -3.8147e-06 10.4186 3.22037 6.18131 9.06797C2.19639 14.5664 0 21.8219 0 29.5C0 37.1781 2.19639 44.4336 6.18131 49.932C10.4186 55.7796 16.1739 59 22.3872 59C28.601 59 34.3563 55.7796 38.5936 49.932C42.5791 44.4336 44.7749 37.1781 44.7749 29.5Z" fill="white"/>
<path d="M22.4253 19.0699C21.9898 19.0699 21.6362 18.7165 21.6362 18.2823C21.6362 17.848 21.9898 17.4946 22.4253 17.4946C22.8609 17.4946 23.2145 17.848 23.2145 18.2823C23.2145 18.7165 22.8609 19.0699 22.4253 19.0699Z" fill="white"/>
<path d="M20.1222 18.2823C20.1222 19.0333 20.782 21.2922 20.7473 21.4835C19.2368 20.7176 17.5734 19.4394 17.5734 17.5217C17.5734 16.438 18.4567 15.5567 19.5424 15.5567C20.1744 15.5567 20.7713 15.8671 21.1392 16.3774C20.5077 16.8036 20.1222 17.5169 20.1222 18.2823Z" fill="white"/>
<path d="M28.9548 17.5218C28.9548 19.0796 28.2652 20.4721 26.9059 21.6616C26.0364 22.4211 25.03 22.9659 24.2489 23.3173C24.2739 23.3247 24.2995 23.3321 24.324 23.3385C24.5157 23.3895 24.6871 23.465 24.6871 23.8169C24.6871 24.3553 24.3202 24.8092 23.8224 24.9447C23.8746 25.0436 23.9033 25.1557 23.9033 25.2727C23.9033 25.5687 23.7164 25.8286 23.4481 25.9323V26.6524C23.7164 26.755 23.9033 27.0149 23.9033 27.311C23.9033 27.6075 23.7164 27.8675 23.4481 27.9695V37.991C23.7164 38.0936 23.9033 38.3535 23.9033 38.6495C23.9033 38.945 23.7164 39.2055 23.4481 39.3086V39.6482H24.5093V40.0708H25.2095V39.6482H26.1993V41.6998H24.5093V42.1713H26.1993V44.2436H25.2095V43.8003H24.5093V44.2436H23.4481V44.5689C23.7164 44.6714 23.9033 44.9313 23.9033 45.2274C23.9033 45.5234 23.7164 45.7833 23.4481 45.8859V46.0066C23.4481 46.4738 23.0674 46.8533 22.5993 46.8533H22.2309C21.7629 46.8533 21.3821 46.4738 21.3821 46.0066V45.8859C21.1138 45.7833 20.9264 45.5234 20.9264 45.2274C20.9264 44.9313 21.1138 44.6714 21.3821 44.5689V39.3086C21.1138 39.206 20.9264 38.945 20.9264 38.6495C20.9264 38.3535 21.1138 38.0936 21.3821 37.991V27.9695C21.1138 27.8675 20.9264 27.6075 20.9264 27.311C20.9264 27.0149 21.1138 26.755 21.3821 26.6524V25.9323C21.1138 25.8291 20.9264 25.5687 20.9264 25.2727C20.9264 25.1557 20.9551 25.0436 21.0073 24.9447C20.51 24.8092 20.1431 24.3553 20.1431 23.8169C20.1431 23.4645 20.3151 23.3895 20.5063 23.3385C20.5206 23.3348 20.535 23.3305 20.5494 23.3263C20.0292 23.0946 19.5388 22.8357 19.0878 22.5556C16.9505 21.2269 15.8201 19.4862 15.8201 17.5218C15.8201 15.4733 17.4899 13.8065 19.5425 13.8065C20.2943 13.8065 21.0286 14.0372 21.6462 14.4608V13.9724C21.1713 13.7725 20.8715 13.392 20.8715 12.9753C20.8715 12.3454 21.5515 11.8325 22.3874 11.8325C23.2234 11.8325 23.9033 12.3454 23.9033 12.9753C23.9033 13.4026 23.5934 13.7874 23.102 13.9835V14.481C23.726 14.0436 24.4699 13.8065 25.2329 13.8065C27.285 13.8065 28.9548 15.4733 28.9548 17.5218ZM39.6423 29.5002C39.6423 15.0285 31.9009 3.25675 22.3874 3.25675C12.874 3.25675 5.13258 15.0285 5.13258 29.5002C5.13258 43.9715 12.874 55.749 22.3874 55.749C31.9009 55.749 39.6423 43.9715 39.6423 29.5002Z" fill="white"/>
<path d="M25.7508 20.3443C25.2886 20.7487 24.7269 21.1213 24.0773 21.4562C24.0373 21.2765 24.7285 19.04 24.7285 18.282C24.7285 17.4906 24.3238 16.7657 23.6604 16.3447C24.032 15.8478 24.6071 15.5565 25.2332 15.5565C26.3184 15.5565 27.2017 16.4377 27.2017 17.5215C27.2017 18.5531 26.7135 19.5024 25.7508 20.3443Z" fill="white"/>
</svg>
