<svg width="60" height="60" viewBox="0 0 60 60" fill="none" xmlns="http://www.w3.org/2000/svg">
<rect x="0.5" y="0.5" width="59" height="59" rx="29.5" stroke="#282828"/>
<path d="M21.1703 38.6703L37.2703 22.5703L25.0313 22.5703C24.8137 22.5703 24.605 22.4839 24.4512 22.33C24.2974 22.1762 24.2109 21.9676 24.2109 21.75C24.2109 21.5324 24.2974 21.3238 24.4512 21.1699C24.605 21.0161 24.8137 20.9297 25.0313 20.9297L39.25 20.9297C39.4676 20.9297 39.6762 21.0161 39.8301 21.17C39.9839 21.3238 40.0703 21.5324 40.0703 21.75L40.0703 35.9688C40.0703 36.1863 39.9839 36.395 39.83 36.5488C39.6762 36.7026 39.4676 36.7891 39.25 36.7891C39.0324 36.7891 38.8238 36.7026 38.67 36.5488C38.5161 36.395 38.4297 36.1863 38.4297 35.9687L38.4297 23.7297L22.3297 39.8297C22.1742 39.9746 21.9685 40.0535 21.756 40.0497C21.5435 40.046 21.3407 39.9599 21.1904 39.8096C21.0401 39.6593 20.954 39.4565 20.9503 39.244C20.9465 39.0315 21.0254 38.8258 21.1703 38.6703Z" fill="#282828"/>
</svg>
