<svg width="39" height="30" viewBox="0 0 39 30" fill="none" xmlns="http://www.w3.org/2000/svg">
<g opacity="0.15">
<path d="M11.6692 29.8345V27.848C11.6808 27.6813 11.6568 27.5141 11.5986 27.3575C11.5405 27.2009 11.4497 27.0585 11.3322 26.9398C11.2147 26.821 11.0733 26.7287 10.9173 26.6689C10.7613 26.6091 10.5944 26.5833 10.4276 26.5931C10.2088 26.5788 9.99014 26.6234 9.79445 26.7224C9.59877 26.8214 9.43326 26.9712 9.31518 27.156C9.20755 26.9767 9.05354 26.8298 8.86941 26.7307C8.68527 26.6317 8.47783 26.5841 8.26893 26.5931C8.08684 26.5839 7.90549 26.6224 7.74288 26.7049C7.58027 26.7874 7.44203 26.9109 7.34187 27.0633V26.6726H6.6532V29.8345H7.34849V28.083C7.33309 27.9747 7.34195 27.8643 7.37446 27.7598C7.40697 27.6553 7.4623 27.5593 7.53645 27.4788C7.6106 27.3983 7.70171 27.3353 7.8032 27.2944C7.90469 27.2534 8.01401 27.2356 8.12325 27.242C8.58016 27.242 8.81192 27.54 8.81192 28.0764V29.8345H9.50721V28.083C9.49303 27.9749 9.50276 27.865 9.53572 27.761C9.56867 27.657 9.62405 27.5616 9.69795 27.4814C9.77184 27.4012 9.86245 27.3382 9.96336 27.2968C10.0643 27.2555 10.173 27.2368 10.282 27.242C10.7521 27.242 10.9773 27.54 10.9773 28.0764V29.8345H11.6692ZM15.543 28.2552V26.6759H14.8477V27.06C14.731 26.9093 14.5799 26.7886 14.4072 26.708C14.2344 26.6274 14.0449 26.5891 13.8545 26.5964C13.4154 26.5964 12.9943 26.7708 12.6839 27.0813C12.3734 27.3917 12.199 27.8128 12.199 28.2519C12.199 28.6909 12.3734 29.112 12.6839 29.4225C12.9943 29.7329 13.4154 29.9073 13.8545 29.9073C14.0449 29.9146 14.2344 29.8764 14.4072 29.7958C14.5799 29.7152 14.731 29.5945 14.8477 29.4438V29.8279H15.5364L15.543 28.2552ZM12.9837 28.2552C12.9947 28.0689 13.0599 27.8898 13.1713 27.7401C13.2828 27.5904 13.4356 27.4766 13.6109 27.4126C13.7862 27.3486 13.9765 27.3373 14.1581 27.3801C14.3398 27.4229 14.505 27.5178 14.6334 27.6533C14.7618 27.7888 14.8477 27.9588 14.8807 28.1425C14.9137 28.3262 14.8922 28.5156 14.8189 28.6872C14.7456 28.8589 14.6237 29.0053 14.4682 29.1086C14.3128 29.2118 14.1305 29.2674 13.9438 29.2683C13.8121 29.2714 13.6811 29.247 13.5593 29.1965C13.4375 29.1461 13.3276 29.0708 13.2366 28.9754C13.1456 28.88 13.0755 28.7667 13.0308 28.6427C12.9861 28.5187 12.9678 28.3867 12.9771 28.2552H12.9837ZM30.2568 26.5997C30.4835 26.5991 30.7082 26.6418 30.919 26.7255C31.1201 26.8061 31.3034 26.9253 31.4586 27.0765C31.6118 27.2263 31.7334 27.4053 31.8162 27.6029C31.9892 28.0274 31.9892 28.5028 31.8162 28.9273C31.7335 29.125 31.6119 29.304 31.4586 29.4537C31.3034 29.6049 31.1201 29.7242 30.919 29.8047C30.4824 29.9743 29.9981 29.9743 29.5615 29.8047C29.3613 29.7242 29.179 29.605 29.0251 29.4537C28.8734 29.3034 28.753 29.1245 28.6708 28.9273C28.4982 28.5027 28.4982 28.0275 28.6708 27.6029C28.753 27.4058 28.8734 27.2268 29.0251 27.0765C29.179 26.9253 29.3613 26.806 29.5615 26.7255C29.7798 26.6351 30.0139 26.5889 30.2501 26.5898L30.2568 26.5997ZM30.2568 27.2619C30.1219 27.2601 29.988 27.2848 29.8628 27.3348C29.7448 27.3821 29.6377 27.4531 29.5482 27.5433C29.4569 27.6384 29.386 27.751 29.3396 27.8744C29.2385 28.1388 29.2385 28.4312 29.3396 28.6955C29.3859 28.819 29.4569 28.9316 29.5482 29.0266C29.6377 29.117 29.7447 29.188 29.8628 29.2352C30.115 29.334 30.3952 29.334 30.6475 29.2352C30.7711 29.1895 30.8839 29.1185 30.9785 29.0266C31.0701 28.9318 31.1411 28.8191 31.1871 28.6955C31.2883 28.4312 31.2883 28.1388 31.1871 27.8744C31.1411 27.7509 31.0701 27.6382 30.9785 27.5433C30.8839 27.4515 30.7711 27.3805 30.6475 27.3348C30.5226 27.2776 30.3874 27.2461 30.2501 27.242L30.2568 27.2619ZM19.2844 28.2552C19.2844 27.2619 18.6685 26.5997 17.7845 26.5997C17.3455 26.6059 16.9268 26.7862 16.6207 27.101C16.3146 27.4158 16.1461 27.8393 16.1522 28.2784C16.1584 28.7174 16.3387 29.1361 16.6535 29.4422C16.9683 29.7483 17.3918 29.9168 17.8309 29.9106C18.3022 29.9268 18.763 29.7688 19.1254 29.467L18.7943 28.9571C18.5329 29.1668 18.209 29.2833 17.8739 29.2882C17.6463 29.3078 17.42 29.2378 17.2431 29.0931C17.0663 28.9484 16.9529 28.7405 16.927 28.5134H19.2744C19.2844 28.4307 19.2844 28.3479 19.2844 28.2552ZM16.9303 27.9771C16.9431 27.7669 17.0368 27.5698 17.1917 27.4272C17.3467 27.2846 17.5508 27.2076 17.7613 27.2122C17.8644 27.2101 17.9669 27.2282 18.0629 27.2656C18.159 27.303 18.2467 27.359 18.3211 27.4303C18.3955 27.5016 18.4551 27.5869 18.4966 27.6813C18.538 27.7757 18.5604 27.8773 18.5626 27.9804L16.9303 27.9771ZM22.1814 27.4804C21.8791 27.3063 21.537 27.2128 21.1881 27.2089C20.8107 27.2089 20.5856 27.348 20.5856 27.5798C20.5856 27.8115 20.8239 27.8513 21.1219 27.891L21.453 27.9373C22.1417 28.0367 22.5589 28.328 22.5589 28.8843C22.5589 29.4405 22.0291 29.9173 21.1186 29.9173C20.6306 29.9303 20.1513 29.7864 19.7512 29.5067L20.0823 28.9703C20.3861 29.1958 20.757 29.3124 21.1352 29.3014C21.6053 29.3014 21.8569 29.1624 21.8569 28.9174C21.8569 28.7386 21.6782 28.6393 21.3007 28.5863L20.9696 28.5399C20.2611 28.4406 19.877 28.1228 19.877 27.6063C19.877 26.9772 20.3935 26.5931 21.2014 26.5931C21.6535 26.578 22.1005 26.6929 22.4893 26.9242L22.1814 27.4804ZM25.4923 27.3016H24.3699V28.7286C24.3699 29.0597 24.4825 29.2584 24.8268 29.2584C25.0418 29.2513 25.2514 29.1898 25.4361 29.0796L25.6347 29.669C25.3766 29.8301 25.0782 29.915 24.7739 29.914C23.9594 29.914 23.6747 29.4769 23.6747 28.7419V27.3016H23.0323V26.6726H23.6747V25.7124H24.3699V26.6726H25.4923V27.3016ZM27.8729 26.5931C28.0399 26.5938 28.2057 26.6229 28.3629 26.6792L28.151 27.3414C28.0142 27.2868 27.8679 27.2598 27.7206 27.2619C27.2703 27.2619 27.0584 27.5533 27.0584 28.0764V29.8477H26.3697V26.6858H27.0518V27.0699C27.1363 26.9247 27.2584 26.805 27.4053 26.7234C27.5521 26.6419 27.7182 26.6014 27.8861 26.6064L27.8729 26.5931ZM32.634 29.3743C32.6771 29.3738 32.7198 29.3816 32.7598 29.3975C32.7978 29.413 32.8327 29.4354 32.8625 29.4637C32.8916 29.4922 32.9151 29.5259 32.932 29.563C32.9488 29.6017 32.9574 29.6434 32.9574 29.6855C32.9574 29.7277 32.9488 29.7693 32.932 29.808C32.9151 29.8451 32.8916 29.8788 32.8625 29.9073C32.8327 29.9356 32.7978 29.958 32.7598 29.9736C32.7202 29.991 32.6773 30.0001 32.634 30.0001C32.5712 29.9996 32.5099 29.9813 32.4571 29.9473C32.4044 29.9133 32.3624 29.865 32.336 29.808C32.3195 29.7693 32.3109 29.7276 32.3109 29.6855C32.3109 29.6434 32.3195 29.6017 32.336 29.563C32.3529 29.5259 32.3765 29.4922 32.4056 29.4637C32.4354 29.4354 32.4702 29.413 32.5082 29.3975C32.543 29.3836 32.58 29.3758 32.6174 29.3743H32.634ZM32.634 29.9338C32.6671 29.934 32.6998 29.9273 32.73 29.914C32.7585 29.9012 32.7843 29.8833 32.8062 29.861C32.8343 29.8327 32.855 29.798 32.8666 29.7599C32.8783 29.7218 32.8804 29.6814 32.8729 29.6422C32.8654 29.6031 32.8485 29.5664 32.8236 29.5353C32.7987 29.5041 32.7666 29.4796 32.73 29.4637C32.6997 29.4505 32.667 29.4437 32.634 29.4438C32.601 29.444 32.5684 29.4507 32.538 29.4637C32.5082 29.4759 32.4812 29.4939 32.4585 29.5166C32.4171 29.5618 32.3941 29.6209 32.3941 29.6822C32.3941 29.7435 32.4171 29.8026 32.4585 29.8477C32.4815 29.871 32.5088 29.8894 32.5389 29.9019C32.5691 29.9144 32.6014 29.9207 32.634 29.9206V29.9338ZM32.6539 29.5398C32.6848 29.5383 32.7152 29.5477 32.74 29.5663C32.7501 29.5747 32.7581 29.5854 32.7633 29.5975C32.7684 29.6096 32.7707 29.6227 32.7698 29.6358C32.7702 29.6468 32.7684 29.6578 32.7644 29.6681C32.7604 29.6783 32.7544 29.6877 32.7466 29.6954C32.7274 29.7129 32.7029 29.7234 32.6771 29.7252L32.7731 29.8345H32.6969L32.6075 29.7252H32.5777V29.8345H32.5148V29.5299L32.6539 29.5398ZM32.581 29.5961V29.6756H32.6539C32.6668 29.6794 32.6806 29.6794 32.6936 29.6756C32.6959 29.671 32.6971 29.6658 32.6971 29.6607C32.6971 29.6555 32.6959 29.6504 32.6936 29.6458C32.6959 29.6412 32.6971 29.6361 32.6971 29.6309C32.6971 29.6257 32.6959 29.6206 32.6936 29.616C32.6806 29.6121 32.6668 29.6121 32.6539 29.616L32.581 29.5961Z" fill="white"/>
<path d="M24.4991 2.54907H14.0697V21.2922H24.4991V2.54907Z" fill="#8E8D8C"/>
<path d="M14.7319 11.9224C14.7299 10.1171 15.1388 8.33497 15.9276 6.71102C16.7163 5.08707 17.8642 3.66389 19.2844 2.54923C17.526 1.16732 15.4143 0.307994 13.1906 0.0694617C10.9669 -0.16907 8.72102 0.222812 6.70954 1.20033C4.69805 2.17784 3.00216 3.70155 1.81568 5.5973C0.629204 7.49305 0 9.68437 0 11.9208C0 14.1572 0.629204 16.3485 1.81568 18.2443C3.00216 20.14 4.69805 21.6637 6.70954 22.6413C8.72102 23.6188 10.9669 24.0107 13.1906 23.7721C15.4143 23.5336 17.526 22.6743 19.2844 21.2924C17.8647 20.178 16.717 18.7554 15.9283 17.132C15.1396 15.5087 14.7304 13.7272 14.7319 11.9224Z" fill="#A8A8A8"/>
<path d="M37.4315 19.3058V18.935H37.5871V18.8555H37.1931V18.935H37.3488V19.3191L37.4315 19.3058ZM38.1964 19.3058V18.8423H38.0772L37.9381 19.1734L37.7991 18.8423H37.6765V19.3058H37.7626V18.9582L37.8918 19.2595H37.9811L38.1103 18.9582V19.3091L38.1964 19.3058Z" fill="#00A1DF"/>
<path d="M38.5672 11.9224C38.5666 14.1584 37.9371 16.3491 36.7506 18.2444C35.5641 20.1396 33.8684 21.6629 31.8572 22.6401C29.8461 23.6174 27.6006 24.0092 25.3773 23.7709C23.1541 23.5325 21.0427 22.6736 19.2844 21.2923C20.7035 20.177 21.8508 18.7539 22.6398 17.1305C23.4287 15.5071 23.8386 13.7257 23.8386 11.9207C23.8386 10.1157 23.4287 8.33434 22.6398 6.71091C21.8508 5.08749 20.7035 3.66445 19.2844 2.54914C21.0426 1.1668 23.1543 0.307057 25.3781 0.0681822C27.6019 -0.170692 29.8481 0.220944 31.8598 1.19832C33.8716 2.1757 35.5677 3.69937 36.7544 5.59518C37.9411 7.491 38.5704 9.68246 38.5705 11.919L38.5672 11.9224Z" fill="white"/>
</g>
</svg>
