<svg width="63" height="15" viewBox="0 0 63 15" fill="none" xmlns="http://www.w3.org/2000/svg">
<path d="M23.0496 14.7501V9.25674C23.0496 7.90428 22.355 6.67656 20.9862 6.67656C19.6378 6.67656 18.8411 7.90428 18.8411 9.25674V14.7501H16.3487V4.4709H18.6572L18.8411 5.71941C19.3723 4.67905 20.5367 4.30444 21.497 4.30444C22.7024 4.30444 23.9077 4.80382 24.4797 6.21883C25.3787 4.76217 26.5432 4.34609 27.8507 4.34609C30.7108 4.34609 32.1205 6.13558 32.1205 9.21513V14.7501H29.628V9.21513C29.628 7.86264 29.0764 6.71833 27.7281 6.71833C26.3797 6.71833 25.5421 7.90428 25.5421 9.25674V14.7501H23.0496Z" fill="white" fill-opacity="0.15"/>
<path d="M36.4016 9.54808C36.4016 11.5041 37.7296 12.6692 39.3844 12.6692C43.307 12.6692 43.307 6.44766 39.3844 6.44766C37.7296 6.44766 36.4016 7.59213 36.4016 9.54808ZM42.4487 4.4526H44.839V14.7548H42.4896L42.3673 13.1895C41.795 14.3964 40.222 14.979 39.0984 14.9999C36.1157 15.0207 33.9092 13.1479 33.9092 9.54808C33.9092 6.01071 36.2178 4.15875 39.1597 4.17962C40.508 4.17962 41.795 4.82463 42.3673 5.84421L42.4487 4.4526Z" fill="white" fill-opacity="0.15"/>
<path d="M47.1193 4.45344V14.7535H49.6115V4.45344H47.1193ZM49.8365 1.48255C49.8365 3.45927 46.8943 3.45927 46.8943 1.48255C46.8943 -0.494184 49.8365 -0.494184 49.8365 1.48255Z" fill="white" fill-opacity="0.15"/>
<path d="M54.5398 9.61118C54.5398 11.4631 55.8881 12.6283 57.4611 12.6283C59.0545 12.6283 60.3215 11.4007 60.3215 9.61118C60.3215 7.75927 59.0545 6.61475 57.4611 6.61475C55.8881 6.61475 54.5398 7.82169 54.5398 9.61118ZM54.3761 0.195312V5.88653C54.9689 4.82527 56.6237 4.24272 57.6861 4.24272C60.6279 4.24272 62.8136 6.07377 62.8136 9.61118C62.8136 12.9821 60.587 14.9797 57.6247 14.9797C56.3987 14.9797 55.1526 14.5636 54.3761 13.3358L54.2129 14.7508H51.884V0.195312H54.3761Z" fill="white" fill-opacity="0.15"/>
<path d="M13.3761 3.57866C12.0817 1.53878 9.83089 0.1875 7.26875 0.1875C3.25448 0.1875 0 3.50196 0 7.59058C0 8.10202 0.0508868 8.6016 0.14785 9.0838C6.33558 5.11071 11.2957 3.92287 13.3761 3.57866Z" fill="white" fill-opacity="0.15"/>
<path d="M13.525 3.82007C7.40326 6.51655 3.38966 11.1665 2.10938 12.8018C3.42619 14.153 5.25083 14.9903 7.26785 14.9903C11.2821 14.9903 14.5367 11.6757 14.5367 7.58718C14.5367 6.21137 14.1669 4.9238 13.525 3.82007Z" fill="white" fill-opacity="0.15"/>
</svg>
