<svg width="39" height="30" viewBox="0 0 39 30" fill="none" xmlns="http://www.w3.org/2000/svg">
<g opacity="0.15">
<path d="M7.01739 29.8346V27.848C7.02897 27.681 7.00481 27.5133 6.94653 27.3563C6.88824 27.1993 6.79717 27.0565 6.67938 26.9375C6.56159 26.8185 6.41978 26.7259 6.2634 26.6659C6.10703 26.606 5.93967 26.5801 5.77249 26.5899C5.55365 26.5755 5.33498 26.6202 5.13929 26.7192C4.94361 26.8182 4.77809 26.9679 4.66002 27.1527C4.55239 26.9735 4.39839 26.8266 4.21426 26.7275C4.03012 26.6284 3.82267 26.5809 3.61377 26.5899C3.43168 26.5807 3.25034 26.6192 3.08773 26.7017C2.92512 26.7841 2.78688 26.9077 2.68672 27.06V26.6693H1.99805V29.8346H2.69334V28.093C2.67855 27.9848 2.68785 27.8746 2.72059 27.7704C2.75332 27.6662 2.80868 27.5705 2.8827 27.4901C2.95672 27.4098 3.04757 27.3468 3.14877 27.3056C3.24997 27.2645 3.35901 27.2462 3.46809 27.2521C3.925 27.2521 4.15676 27.55 4.15676 28.0864V29.8478H4.85205V28.093C4.83787 27.9849 4.8476 27.875 4.88056 27.771C4.91351 27.6671 4.96889 27.5716 5.04279 27.4914C5.11668 27.4112 5.20729 27.3482 5.3082 27.3068C5.40911 27.2655 5.51788 27.2468 5.62681 27.2521C6.09696 27.2521 6.3221 27.55 6.3221 28.0864V29.8478L7.01739 29.8346ZM17.3044 26.6693H16.1721V25.7092H15.4768V26.6693H14.8477V27.2984H15.49V28.7552C15.49 29.4902 15.7748 29.9273 16.5892 29.9273C16.8935 29.9283 17.1919 29.8434 17.4501 29.6823L17.2514 29.0929C17.0667 29.2031 16.8571 29.2646 16.6422 29.2717C16.3111 29.2717 16.1853 29.0598 16.1853 28.742V27.2984H17.311L17.3044 26.6693ZM23.178 26.5899C23.01 26.5849 22.8439 26.6254 22.6971 26.707C22.5502 26.7885 22.4281 26.9082 22.3436 27.0534V26.6693H21.6616V29.8346H22.3502V28.0599C22.3502 27.5368 22.5754 27.2454 23.0124 27.2454C23.1597 27.2434 23.306 27.2704 23.4428 27.3249L23.6547 26.6627C23.4974 26.6065 23.3317 26.5773 23.1647 26.5766L23.178 26.5899ZM14.2981 26.921C13.9083 26.6892 13.4601 26.5743 13.0068 26.5899C12.2056 26.5899 11.6825 26.9739 11.6825 27.603C11.6825 28.1195 12.0665 28.4374 12.7751 28.5367L13.1062 28.583C13.4836 28.636 13.6624 28.7353 13.6624 28.9141C13.6624 29.1591 13.4108 29.2982 12.9406 29.2982C12.5624 29.3091 12.1916 29.1925 11.8877 28.9671L11.5567 29.5035C11.9578 29.7836 12.4383 29.9275 12.9274 29.914C13.8412 29.914 14.3709 29.4836 14.3709 28.881C14.3709 28.2784 13.9537 28.0334 13.2651 27.9341L12.934 27.8878C12.636 27.848 12.3976 27.7884 12.3976 27.5765C12.3976 27.3646 12.6228 27.2057 13.0002 27.2057C13.3491 27.2098 13.6911 27.3032 13.9935 27.4772L14.2981 26.921ZM32.7432 26.5899C32.5753 26.5849 32.4091 26.6254 32.2623 26.707C32.1155 26.7885 31.9933 26.9082 31.9088 27.0534V26.6693H31.2268V29.8346H31.9154V28.0599C31.9154 27.5368 32.1406 27.2454 32.5776 27.2454C32.7249 27.2434 32.8712 27.2704 33.008 27.3249L33.2199 26.6627C33.0627 26.6065 32.897 26.5773 32.7299 26.5766L32.7432 26.5899ZM23.8699 28.2453C23.8617 28.4678 23.9001 28.6895 23.9825 28.8962C24.0649 29.103 24.1895 29.2903 24.3485 29.4461C24.5074 29.6019 24.6971 29.7229 24.9055 29.8012C25.1139 29.8794 25.3363 29.9134 25.5585 29.9008C25.972 29.9218 26.3784 29.7872 26.6974 29.5233L26.3664 28.9671C26.1283 29.1487 25.838 29.2485 25.5386 29.2519C25.2841 29.2313 25.0466 29.1156 24.8734 28.9279C24.7003 28.7401 24.6042 28.4941 24.6042 28.2387C24.6042 27.9833 24.7003 27.7373 24.8734 27.5496C25.0466 27.3618 25.2841 27.2462 25.5386 27.2256C25.838 27.2289 26.1283 27.3288 26.3664 27.5103L26.6974 26.9541C26.3784 26.6903 25.972 26.5556 25.5585 26.5766C25.3363 26.564 25.1139 26.598 24.9055 26.6763C24.6971 26.7546 24.5074 26.8755 24.3485 27.0313C24.1895 27.1871 24.0649 27.3744 23.9825 27.5812C23.9001 27.788 23.8617 28.0097 23.8699 28.2321V28.2453ZM30.3196 28.2453V26.6693H29.6309V27.0534C29.514 26.9029 29.3629 26.7824 29.1902 26.7018C29.0175 26.6212 28.8281 26.5829 28.6376 26.5899C28.1986 26.5899 27.7775 26.7643 27.4671 27.0748C27.1566 27.3852 26.9822 27.8063 26.9822 28.2453C26.9822 28.6844 27.1566 29.1055 27.4671 29.4159C27.7775 29.7264 28.1986 29.9008 28.6376 29.9008C28.8281 29.9078 29.0175 29.8694 29.1902 29.7889C29.3629 29.7083 29.514 29.5877 29.6309 29.4373V29.8213H30.3196V28.2453ZM27.7569 28.2453C27.7679 28.059 27.8332 27.88 27.9446 27.7303C28.056 27.5806 28.2088 27.4667 28.3842 27.4027C28.5595 27.3388 28.7497 27.3275 28.9314 27.3702C29.1131 27.413 29.2783 27.508 29.4066 27.6434C29.535 27.7789 29.621 27.949 29.654 28.1327C29.6869 28.3164 29.6654 28.5057 29.5921 28.6773C29.5189 28.849 29.397 28.9955 29.2415 29.0987C29.086 29.202 28.9037 29.2575 28.7171 29.2585C28.586 29.2601 28.456 29.2346 28.3352 29.1836C28.2145 29.1326 28.1056 29.0571 28.0154 28.962C27.9252 28.8668 27.8557 28.754 27.8112 28.6307C27.7667 28.5073 27.7483 28.3761 27.7569 28.2453ZM19.4466 26.5899C19.0075 26.596 18.5889 26.7763 18.2828 27.0911C17.9766 27.4059 17.8081 27.8295 17.8143 28.2685C17.8204 28.7076 18.0007 29.1262 18.3155 29.4323C18.6303 29.7384 19.0539 29.9069 19.4929 29.9008C19.9693 29.9252 20.4377 29.7718 20.8073 29.4704L20.4762 28.9605C20.2148 29.1702 19.8909 29.2867 19.5558 29.2916C19.3282 29.3112 19.1019 29.2412 18.925 29.0965C18.7482 28.9518 18.6348 28.7438 18.6089 28.5168H20.9596C20.9596 28.4307 20.9596 28.3447 20.9596 28.252C20.9596 27.2587 20.3438 26.5965 19.4565 26.5965L19.4466 26.5899ZM19.4466 27.2057C19.5496 27.2035 19.6521 27.2216 19.7481 27.2591C19.8442 27.2965 19.9319 27.3524 20.0063 27.4238C20.0807 27.4951 20.1403 27.5804 20.1818 27.6748C20.2232 27.7692 20.2456 27.8708 20.2478 27.9738H18.5923C18.6043 27.7613 18.6991 27.5619 18.8562 27.4183C19.0134 27.2748 19.2206 27.1984 19.4333 27.2057H19.4466ZM36.6997 28.252V25.3979H36.0375V27.0534C35.9206 26.9029 35.7695 26.7824 35.5968 26.7018C35.4241 26.6212 35.2347 26.5829 35.0443 26.5899C34.6052 26.5899 34.1841 26.7643 33.8737 27.0748C33.5632 27.3852 33.3888 27.8063 33.3888 28.2453C33.3888 28.6844 33.5632 29.1055 33.8737 29.4159C34.1841 29.7264 34.6052 29.9008 35.0443 29.9008C35.2347 29.9078 35.4241 29.8694 35.5968 29.7889C35.7695 29.7083 35.9206 29.5877 36.0375 29.4373V29.8213H36.6997V28.252ZM37.8486 29.3744C37.8916 29.3738 37.9344 29.3817 37.9744 29.3975C38.0124 29.413 38.0472 29.4355 38.0771 29.4637C38.1061 29.4923 38.1297 29.526 38.1466 29.5631C38.1633 29.6017 38.172 29.6434 38.172 29.6856C38.172 29.7277 38.1633 29.7694 38.1466 29.8081C38.1297 29.8452 38.1061 29.8789 38.0771 29.9074C38.0472 29.9357 38.0124 29.9581 37.9744 29.9736C37.9348 29.9911 37.8919 30.0001 37.8486 30.0001C37.7858 29.9996 37.7245 29.9813 37.6717 29.9473C37.619 29.9133 37.577 29.865 37.5506 29.8081C37.534 29.7694 37.5255 29.7277 37.5255 29.6856C37.5255 29.6435 37.534 29.6018 37.5506 29.5631C37.5675 29.526 37.5911 29.4923 37.6201 29.4637C37.65 29.4355 37.6848 29.413 37.7228 29.3975C37.7659 29.3804 37.8122 29.3725 37.8585 29.3744H37.8486ZM37.8486 29.9339C37.8816 29.9341 37.9144 29.9273 37.9446 29.914C37.9731 29.9013 37.9989 29.8833 38.0208 29.8611C38.0622 29.8159 38.0852 29.7568 38.0852 29.6955C38.0852 29.6342 38.0622 29.5752 38.0208 29.53C37.999 29.5076 37.9731 29.4896 37.9446 29.477C37.9143 29.4638 37.8816 29.457 37.8486 29.4571C37.8156 29.4573 37.7829 29.4641 37.7526 29.477C37.7228 29.4892 37.6958 29.5072 37.6731 29.53C37.6317 29.5752 37.6087 29.6342 37.6087 29.6955C37.6087 29.7568 37.6317 29.8159 37.6731 29.8611C37.6959 29.8838 37.7229 29.9018 37.7526 29.914C37.786 29.9284 37.8222 29.9352 37.8585 29.9339H37.8486ZM37.8685 29.5399C37.8994 29.5384 37.9298 29.5478 37.9545 29.5664C37.9647 29.5748 37.9727 29.5855 37.9779 29.5975C37.983 29.6096 37.9853 29.6228 37.9843 29.6359C37.9848 29.6469 37.983 29.6579 37.979 29.6681C37.975 29.6784 37.969 29.6877 37.9612 29.6955C37.942 29.7129 37.9175 29.7234 37.8916 29.7253L37.9877 29.8346H37.9115L37.8221 29.7253H37.7923V29.8346H37.7294V29.5432L37.8685 29.5399ZM37.7956 29.5962V29.6756H37.8685C37.8814 29.6795 37.8952 29.6795 37.9082 29.6756C37.9105 29.671 37.9117 29.6659 37.9117 29.6607C37.9117 29.6556 37.9105 29.6505 37.9082 29.6458C37.9105 29.6412 37.9117 29.6361 37.9117 29.6309C37.9117 29.6258 37.9105 29.6207 37.9082 29.6161C37.8952 29.6122 37.8814 29.6122 37.8685 29.6161L37.7956 29.5962ZM34.1536 28.252C34.1646 28.0656 34.2298 27.8866 34.3413 27.7369C34.4527 27.5872 34.6055 27.4733 34.7809 27.4094C34.9562 27.3454 35.1464 27.3341 35.3281 27.3769C35.5097 27.4196 35.6749 27.5146 35.8033 27.6501C35.9317 27.7855 36.0177 27.9556 36.0506 28.1393C36.0836 28.323 36.0621 28.5123 35.9888 28.684C35.9155 28.8556 35.7937 29.0021 35.6382 29.1053C35.4827 29.2086 35.3004 29.2641 35.1138 29.2651C34.9827 29.2668 34.8527 29.2413 34.7319 29.1902C34.6111 29.1392 34.5022 29.0637 34.4121 28.9686C34.3219 28.8734 34.2524 28.7606 34.2079 28.6373C34.1634 28.514 34.1449 28.3828 34.1536 28.252ZM10.9011 28.252V26.6693H10.2124V27.0534C10.0955 26.9029 9.94441 26.7824 9.7717 26.7018C9.599 26.6212 9.4096 26.5829 9.21915 26.5899C8.78009 26.5899 8.35902 26.7643 8.04856 27.0748C7.7381 27.3852 7.56369 27.8063 7.56369 28.2453C7.56369 28.6844 7.7381 29.1055 8.04856 29.4159C8.35902 29.7264 8.78009 29.9008 9.21915 29.9008C9.4096 29.9078 9.599 29.8694 9.7717 29.7889C9.94441 29.7083 10.0955 29.5877 10.2124 29.4373V29.8213H10.9011V28.252ZM8.33844 28.252C8.34942 28.0656 8.41465 27.8866 8.5261 27.7369C8.63755 27.5872 8.79034 27.4733 8.96568 27.4094C9.14101 27.3454 9.33122 27.3341 9.51289 27.3769C9.69457 27.4196 9.85977 27.5146 9.98815 27.6501C10.1165 27.7855 10.2025 27.9556 10.2355 28.1393C10.2684 28.323 10.2469 28.5123 10.1736 28.684C10.1004 28.8556 9.97847 29.0021 9.823 29.1053C9.66752 29.2086 9.48524 29.2641 9.29861 29.2651C9.16696 29.2677 9.03621 29.2429 8.91466 29.1923C8.79311 29.1416 8.6834 29.0663 8.5925 28.9711C8.5016 28.8758 8.43149 28.7627 8.38661 28.6389C8.34174 28.5151 8.32308 28.3833 8.33182 28.252H8.33844Z" fill="white"/>
<path d="M24.499 2.54907H14.0696V21.2921H24.499V2.54907Z" fill="#8E8D8C"/>
<path d="M14.7318 11.9224C14.7299 10.1171 15.1388 8.33494 15.9275 6.711C16.7162 5.08706 17.8642 3.66387 19.2843 2.54922C17.5259 1.16732 15.4142 0.307992 13.1906 0.0694611C10.9669 -0.16907 8.72099 0.222815 6.70951 1.20033C4.69803 2.17784 3.00214 3.70154 1.81567 5.59728C0.629193 7.49303 0 9.68433 0 11.9208C0 14.1572 0.629193 16.3485 1.81567 18.2442C3.00214 20.14 4.69803 21.6637 6.70951 22.6412C8.72099 23.6187 10.9669 24.0106 13.1906 23.772C15.4142 23.5335 17.5259 22.6742 19.2843 21.2923C17.8646 20.178 16.717 18.7553 15.9282 17.132C15.1395 15.5087 14.7304 13.7272 14.7318 11.9224Z" fill="#A8A8A8"/>
<path d="M38.5704 11.9223C38.5703 14.1589 37.941 16.3504 36.7543 18.2462C35.5676 20.142 33.8715 21.6656 31.8597 22.643C29.848 23.6204 27.6019 24.012 25.3781 23.7732C23.1543 23.5343 21.0426 22.6745 19.2843 21.2922C20.7035 20.1769 21.8508 18.7539 22.6397 17.1304C23.4286 15.507 23.8386 13.7256 23.8386 11.9207C23.8386 10.1157 23.4286 8.33431 22.6397 6.71089C21.8508 5.08748 20.7035 3.66443 19.2843 2.54913C21.0426 1.1668 23.1543 0.307056 25.3781 0.0681822C27.6019 -0.170691 29.848 0.220941 31.8597 1.19831C33.8715 2.17569 35.5676 3.69936 36.7543 5.59517C37.941 7.49098 38.5703 9.68243 38.5704 11.919V11.9223Z" fill="white"/>
<path d="M37.4314 19.3056V18.9215H37.587V18.842H37.193V18.9215H37.3619V19.3056H37.4314ZM38.1962 19.3056V18.842H38.077L37.938 19.1731L37.7989 18.842H37.693V19.3056H37.7791V18.9579L37.9082 19.2592H37.9976L38.1267 18.9579V19.3089L38.1962 19.3056Z" fill="white"/>
</g>
</svg>
