<svg width="80" height="20" viewBox="0 0 80 20" fill="none" xmlns="http://www.w3.org/2000/svg">
<g opacity="0.15">
<path d="M26.5386 12.6178L27.8613 11.9244C28.4489 13.0856 29.3567 13.6481 30.5848 13.6481C31.7878 13.6481 32.6009 13.261 32.6009 12.3671C32.6009 11.5122 31.9855 11.1112 30.3564 10.6294C28.4461 10.0697 26.9089 9.54618 26.9089 7.6637C26.9089 5.98172 28.2846 4.87061 30.2896 4.87061C32.2389 4.87061 33.389 5.83134 33.9905 6.99536L32.7764 7.83635C32.1888 6.84777 31.3478 6.39386 30.2785 6.39386C29.1841 6.39386 28.5547 6.79486 28.5547 7.51611C28.5547 8.43786 29.262 8.74418 30.88 9.22594C32.7485 9.77453 34.2467 10.3872 34.2467 12.2446C34.2467 13.8597 32.8711 15.1296 30.5207 15.1296C28.5575 15.1296 27.1679 14.1132 26.5386 12.6178Z" fill="white"/>
<path d="M35.0097 13.233C35.0097 11.6958 36.3186 10.6683 39.6324 10.2951V10.0807C39.6324 9.37337 39.2592 9.06705 38.4712 9.06705C37.4826 9.06705 36.6806 9.54881 36.0791 10.0278L35.2771 9.00022C36.0401 8.30682 37.2264 7.71924 38.6967 7.71924C40.5931 7.71924 41.2476 8.62706 41.2476 10.284V13.2107C41.2476 14.0657 41.3005 14.5864 41.4481 14.9484H39.7911C39.6965 14.656 39.6296 14.4416 39.6296 14.0406C38.9084 14.7758 38.0674 15.057 37.012 15.057C35.8647 15.0487 35.0097 14.4082 35.0097 13.233ZM39.6324 12.9657V11.4034C37.6692 11.6708 36.6277 12.1525 36.6277 12.9267C36.6277 13.4864 37.0147 13.7816 37.6163 13.7816C38.4572 13.7788 39.1117 13.4586 39.6324 12.9657Z" fill="white"/>
<path d="M43.5338 14.9401V9.15897H42.3058V7.85015H43.5338V7.1289C43.5338 5.93982 44.0295 5.01807 45.8312 5.01807C46.1376 5.01807 46.6862 5.07098 46.8059 5.0849V6.35474C46.7001 6.32689 46.4327 6.30183 46.2462 6.30183C45.6586 6.30183 45.1768 6.46335 45.1768 7.22358V7.85015H46.7251V9.15897H45.1768V14.9429H43.5338V14.9401Z" fill="white"/>
<path d="M47.3155 11.4009C47.3155 8.70245 49.2258 7.71387 50.6962 7.71387C52.2863 7.71387 53.8095 8.66346 53.8095 11.5485V11.9355H48.9613C49.0281 13.2165 49.8162 13.779 50.8577 13.779C51.7794 13.779 52.3141 13.4727 52.8488 12.952L53.7176 13.8069C52.9825 14.6228 52.0078 15.0879 50.738 15.0879C48.9585 15.0879 47.3155 14.0074 47.3155 11.4009ZM52.2974 10.7075C52.2027 9.6242 51.6708 9.05054 50.6823 9.05054C49.8802 9.05054 49.1451 9.50445 48.9863 10.7075H52.2974Z" fill="white"/>
<path d="M55.2771 14.94V5.0542H56.4522V10.1586L60.9273 5.05698H62.342L58.9502 8.82474L62.8098 14.9428H61.4592L58.1732 9.72142L56.4495 11.6039V14.9428H55.2771V14.94Z" fill="white"/>
<path d="M63.1468 11.4145C63.1468 8.84978 64.8566 7.74146 66.3381 7.74146C68.0089 7.74146 69.276 8.91662 69.276 11.4674V11.7069H64.2969C64.3358 13.297 65.2576 14.1519 66.4216 14.1519C67.4353 14.1519 68.0117 13.737 68.5464 13.0046L69.2147 13.5922C68.5603 14.5279 67.6664 15.0876 66.3436 15.0876C64.67 15.0876 63.1468 13.8735 63.1468 11.4145ZM68.1843 10.813C68.0897 9.55711 67.491 8.70219 66.3269 8.70219C65.3773 8.70219 64.4834 9.3566 64.3219 10.813H68.1843Z" fill="white"/>
<path d="M69.8023 17.4798L70.0696 16.5581C70.2701 16.611 70.6182 16.6778 71.1111 16.6778C71.8324 16.6778 72.1805 16.3715 72.4589 15.6753L72.7263 14.9819L70.0028 7.88916H71.2169L73.286 13.5923H73.3138L75.3857 7.88916H76.5469L73.5283 15.7449C73.0465 16.9869 72.5007 17.6552 71.125 17.6552C70.4957 17.6525 70.1086 17.5717 69.8023 17.4798Z" fill="white"/>
<path d="M76.9312 8.89155C76.9312 8.29283 77.3935 7.83057 77.9922 7.83057C78.5826 7.83057 79.0393 8.28726 79.0393 8.8832C79.0393 9.48192 78.577 9.94418 77.9783 9.94418C77.3851 9.94418 76.9312 9.48749 76.9312 8.89155ZM78.8248 8.89155C78.8248 8.40144 78.4628 8.02828 77.9783 8.02828C77.5021 8.02828 77.1456 8.39308 77.1456 8.8832C77.1456 9.37331 77.5021 9.74368 77.9922 9.74368C78.4684 9.74368 78.8248 9.38167 78.8248 8.89155ZM77.5689 8.29005H78.0173C78.2957 8.29005 78.46 8.41258 78.46 8.66877C78.46 8.847 78.3821 8.94446 78.254 9.00294L78.4823 9.44293H78.1899L77.9838 9.03636H77.8474V9.44293H77.5689V8.29005ZM77.9978 8.8275C78.1203 8.8275 78.1899 8.78573 78.1899 8.67991C78.1899 8.57966 78.1203 8.53232 77.9978 8.53232H77.8474V8.82472H77.9978V8.8275Z" fill="white"/>
<path d="M19.9972 19.9972H10.103H0V10.4539V0H9.93874H19.9972V10.4845V19.9972Z" fill="white"/>
<path d="M19.2231 14.3693H12.4896L12.1192 13.8875V14.3693H10.5737V13.4586C10.3592 13.545 10.1114 13.5923 9.84127 13.5923H9.75773V14.3693H7.56614L7.22083 13.8847L6.88388 14.3693H3.35283V10.8883H6.90059L7.24032 11.3617L7.58006 10.8883H19.9972V0H0V7.8279L0.685046 6.22946H2.10805L2.42551 6.96185V6.23225H4.18546L4.40824 6.86438L4.62824 6.23225H12.1972V6.51351C12.4812 6.32136 12.8349 6.23225 13.2108 6.23225H15.5528L15.8702 6.96463V6.23225H17.3072L17.6413 6.77527V6.23225H19.2036V9.71317H17.7277L17.4158 9.20078V9.71317H15.2576L15.0571 9.20078H14.6366L14.4444 9.71317H13.1746C12.8627 9.71317 12.5007 9.65469 12.1972 9.45698V9.71317H10.0306L9.66026 9.23141V9.71317H1.81287L1.61236 9.20078H1.19465L0.999722 9.71317H0.0027848V20H20V14.1632C19.7856 14.2941 19.5182 14.3693 19.2231 14.3693Z" fill="white"/>
<path d="M19.237 13.3306H18.0089V13.8319H19.2175C19.7382 13.8319 20.0473 13.5144 20.0473 13.0689C20.0473 12.6345 19.7661 12.381 19.2982 12.381H18.7524C18.6104 12.381 18.5129 12.2891 18.5129 12.1499C18.5129 12.0162 18.6132 11.9271 18.7524 11.9271H19.7856L20.0084 11.4259H18.7747C18.2595 11.4259 17.9449 11.7433 17.9449 12.175C17.9449 12.6233 18.24 12.8739 18.694 12.8739H19.2398C19.3818 12.8739 19.4793 12.9631 19.4793 13.1079C19.4765 13.2415 19.3762 13.3306 19.237 13.3306ZM17.0203 13.3306H15.7923V13.8319H17.0008C17.5216 13.8319 17.8307 13.5144 17.8307 13.0689C17.8307 12.6345 17.5494 12.381 17.0816 12.381H16.5358C16.3938 12.381 16.2963 12.2891 16.2963 12.1499C16.2963 12.0162 16.3965 11.9271 16.5358 11.9271H17.5689L17.7917 11.4259H16.5581C16.0429 11.4259 15.7282 11.7433 15.7282 12.175C15.7282 12.6233 16.0234 12.8739 16.4773 12.8739H17.0231C17.1651 12.8739 17.2626 12.9631 17.2626 13.1079C17.2626 13.2415 17.1623 13.3306 17.0203 13.3306ZM15.472 11.9216V11.4259H13.5561V13.8347H15.472V13.3474H14.1242V12.8684H15.4414V12.3838H14.1242V11.9243H15.472V11.9216ZM12.3587 11.9271C12.5647 11.9271 12.6678 12.0497 12.6678 12.2028C12.6678 12.3532 12.5647 12.4785 12.3587 12.4785H11.6764V11.9271H12.3587ZM11.6792 12.9491H11.9465L12.6789 13.8319H13.3862L12.5926 12.9269C12.9992 12.8517 13.2387 12.5621 13.2387 12.1805C13.2387 11.7378 12.9212 11.4231 12.4088 11.4231H11.1083V13.8319H11.6764V12.9491H11.6792ZM10.2228 12.2335C10.2228 12.3978 10.1197 12.5314 9.91367 12.5314H9.2147V11.9271H9.91367C10.1197 11.9271 10.2228 12.0608 10.2228 12.2335ZM8.64662 11.4259V13.8347H9.2147V13.0355H9.94431C10.4706 13.0355 10.7937 12.6902 10.7937 12.2307C10.7937 11.7517 10.4762 11.4259 9.9638 11.4259H8.64662ZM7.82512 13.8347H8.53244L7.56335 12.6205L8.52687 11.4259H7.83904L7.24032 12.2056L6.64439 11.4259H5.93707L6.90337 12.6289L5.93985 13.8319H6.62768L7.2264 13.0438L7.82512 13.8347ZM5.83125 11.9216V11.4259H3.91534V13.8347H5.83125V13.3474H4.48343V12.8684H5.80061V12.3838H4.48343V11.9243H5.83125V11.9216Z" fill="#282828"/>
<path d="M16.8978 7.83628L16.8811 7.4325L17.1122 7.82515L17.9588 9.17296H18.616V6.76416H18.0785V8.04514L18.0952 8.45171L17.8613 8.05349L17.0454 6.76694H16.3548V9.17574H16.8978V7.83628ZM14.6282 7.64135L14.8037 7.17073L14.9819 7.64135L15.2186 8.22615H14.3943L14.6282 7.64135ZM15.6001 9.17574H16.2322L15.2047 6.76694H14.4556L13.4224 9.17574H14.01L14.2133 8.66614H15.394L15.6001 9.17574ZM13.0966 9.17574H13.1245L13.3584 8.66892H13.1857C12.7875 8.66892 12.5536 8.42108 12.5536 7.98666V7.95324C12.5536 7.56338 12.768 7.27655 13.1802 7.27655H13.7984V6.76694H13.1356C12.3949 6.76694 11.9855 7.26541 11.9855 7.94767V7.99502C11.9855 8.70512 12.4004 9.17018 13.0966 9.17574ZM11.0666 9.17574H11.6346V7.97274V6.76973H11.0666V7.97274V9.17574ZM9.86912 7.27098C10.0752 7.27098 10.1782 7.3963 10.1782 7.54667C10.1782 7.69705 10.0752 7.82236 9.86912 7.82236H9.18686V7.27098H9.86912ZM9.18964 8.29298H9.45698L10.1894 9.17574H10.8967L10.103 8.2707C10.5096 8.19552 10.7491 7.9059 10.7491 7.52439C10.7491 7.08162 10.4316 6.76694 9.91924 6.76694H8.61877V9.17574H9.18686V8.29298H9.18964ZM8.22334 7.26263V6.76694H6.30744V9.17574H8.22334V8.68842H6.87552V8.20944H8.1927V7.7249H6.87552V7.26263H8.22334ZM3.467 7.5968L3.44751 7.04263L3.62295 7.5968L4.12977 9.17574H4.65608L5.16569 7.5968L5.34113 7.03985L5.32164 7.5968L5.31607 9.17574H5.84517V6.76694H4.95127L4.54191 8.02843L4.39432 8.56867L4.24673 8.02843L3.83737 6.76694H2.94068V9.17574H3.47814L3.467 7.5968ZM1.21136 7.64135L1.3868 7.17073L1.56502 7.64135L1.80173 8.22615H0.977444L1.21136 7.64135ZM2.18602 9.17574H2.81816L1.79059 6.76694H1.04149L0.00835419 9.17574H0.595934L0.79922 8.66614H1.97995L2.18602 9.17574Z" fill="#282828"/>
</g>
</svg>
