<svg width="47" height="15" viewBox="0 0 47 15" fill="none" xmlns="http://www.w3.org/2000/svg">
<path d="M22.9964 0.265103L19.8942 14.7719H16.1407L19.2442 0.265103H22.9964ZM38.7866 9.63166L40.7609 4.1843L41.8978 9.63166H38.7866ZM42.9748 14.7719H46.4453L43.4132 0.265103H40.2128C39.4915 0.265103 38.8822 0.683151 38.6133 1.32807L32.9824 14.7719H36.9233L37.7058 12.6051H42.521L42.9748 14.7719ZM33.1774 10.0357C33.194 6.20698 27.8855 5.99541 27.9212 4.28499C27.9327 3.76498 28.4285 3.21055 29.5119 3.06908C30.0497 3.00025 31.532 2.94418 33.2131 3.71909L33.8708 0.641091C32.9684 0.31481 31.806 0 30.3607 0C26.6505 0 24.0403 1.97043 24.0199 4.7948C23.9957 6.88376 25.8833 8.04741 27.3031 8.74331C28.7675 9.4545 29.2569 9.91078 29.2506 10.5455C29.2404 11.5192 28.0831 11.95 27.0061 11.9666C25.1185 11.9959 24.0237 11.4555 23.1519 11.0489L22.47 14.2302C23.3482 14.6317 24.9669 14.9809 26.6429 15C30.5876 15 33.1659 13.0512 33.1774 10.0357ZM17.6345 0.265103L11.5537 14.7719H7.58603L4.59342 3.19398C4.41244 2.48279 4.2544 2.22024 3.70252 1.91945C2.80015 1.43003 1.31022 0.971196 0 0.6857L0.0892174 0.265103H6.47464C7.28779 0.265103 8.02065 0.80678 8.20673 1.74356L9.78715 10.1389L13.6911 0.265103" fill="white" fill-opacity="0.15"/>
</svg>
